<svg xmlns="http://www.w3.org/2000/svg" id="Layer_1" data-name="Layer 1" viewBox="0 0 200 100"><defs><style>.cls-1{fill:#9b1627}</style></defs><g id="layer1"><g id="g4649"><path id="path4089" d="M49.445 47.807c1.93 0 3.651.888 4.729 2.431l.082.12 2.489-2.489-.072-.086c-.197-.236-.38-.44-.558-.621-1.851-1.884-4.14-2.838-6.806-2.838-2.495 0-4.89 1.092-6.741 3.076-1.697 1.802-2.595 4.12-2.595 6.7 0 2.483 1.021 5.027 2.732 6.803 1.808 1.908 4.087 2.874 6.772 2.874 2.636 0 5.013-1.076 6.876-3.112l.289-.337.07-.084-2.488-2.489-.084.118c-1.08 1.538-2.779 2.421-4.664 2.421-3.355 0-5.887-2.678-5.887-6.228 0-3.569 2.517-6.258 5.855-6.258" class="cls-1"/><path id="path4093" d="M72.636 57.266c-1.021 1.896-2.903 3.027-5.035 3.027-3.359 0-5.887-2.678-5.887-6.228 0-3.569 2.515-6.258 5.853-6.258 2.181 0 4.087 1.136 5.097 3.04l.077.145 2.556-2.556-.06-.084c-.308-.426-.642-.826-1.001-1.191-1.849-1.884-4.139-2.838-6.806-2.838-2.495 0-4.888 1.092-6.738 3.076-1.699 1.803-2.597 4.12-2.597 6.702 0 2.481 1.021 5.025 2.732 6.801 1.808 1.908 4.087 2.874 6.773 2.874 2.635 0 5.011-1.074 6.874-3.112.246-.272.484-.571.724-.914l.058-.084-2.544-2.544-.077.144Z" class="cls-1"/><path id="path4097" d="M28.708 44.249c-4.64 0-8.708 3.776-8.708 8.117v10.926h3.762l.003-10.977c0-2.429 2.657-4.313 4.943-4.313s4.943 1.884 4.943 4.313h.118l-.121.045.005 10.933h3.762V52.33c0-4.303-4.069-8.079-8.707-8.079" class="cls-1"/><path id="path4101" d="M116.665 60.725c-3.769 0-6.613-2.994-6.613-6.965s2.828-6.994 6.578-6.994 6.58 2.994 6.58 6.963-2.814 6.996-6.546 6.996m9.221-7.171c0-2.423-.973-4.749-2.743-6.553-1.808-1.841-4.046-2.775-6.652-2.775-2.431 0-4.765 1.069-6.575 3.011-1.685 1.788-2.539 3.993-2.539 6.561 0 2.429.999 4.919 2.674 6.659 1.766 1.861 3.99 2.806 6.614 2.806 2.57 0 4.891-1.054 6.71-3.042 1.595-1.764 2.51-4.195 2.51-6.667" class="cls-1"/><path id="path4105" d="M86.772 61.031c-3.771 0-6.614-2.994-6.614-6.963 0-3.99 2.83-6.998 6.58-6.998s6.578 2.996 6.578 6.963c0 3.99-2.814 6.998-6.544 6.998m.105 9.341c5.708 0 9.116-3.749 9.116-10.026v-6.501c-.005-2.416-.977-4.739-2.743-6.537-1.808-1.841-4.046-2.775-6.654-2.775-2.428 0-4.763 1.069-6.575 3.011-1.684 1.788-2.537 3.995-2.537 6.561 0 2.429.999 4.921 2.674 6.659 1.766 1.861 3.99 2.804 6.614 2.804 2.234 0 4.229-.765 5.935-2.277l.695-.616-.022.929c-.092 3.851-2.79 6.438-6.714 6.438-2.257 0-4.043-.927-5.177-2.684h-2.78c1.346 3.194 4.291 5.015 8.168 5.015" class="cls-1"/><path id="path4109" d="M107.096 47.22v-2.729c-2.157.207-4.216 1.263-5.832 2.998-1.66 1.761-2.518 3.932-2.556 6.454l-.005.198v8.912h2.84v-9.087c.043-3.492 2.361-6.279 5.554-6.746" class="cls-1"/><path id="path4113" d="M144.958 45.067h-2.828l-.017 11.164c-.233 2.676-3.071 4.635-5.622 4.635s-5.389-1.959-5.622-4.635h-.012l-.005-.405V45.068h-2.828v10.758c0 4.202 3.957 7.855 8.467 7.855s8.467-3.653 8.467-7.815V45.068Z" class="cls-1"/><path id="path4117" d="M156.562 61.031c-3.771 0-6.613-2.994-6.613-6.963 0-3.99 2.826-6.998 6.578-6.998s6.578 2.996 6.578 6.963c0 3.99-2.811 6.998-6.544 6.998m9.221-7.171c0-2.423-.973-4.751-2.741-6.553-1.808-1.841-4.048-2.775-6.654-2.775-2.429 0-4.765 1.069-6.575 3.011-1.685 1.788-2.539 3.995-2.539 6.561v15.86h2.678v-9.138l.671.583c1.644 1.432 3.644 2.157 5.94 2.157 2.571 0 4.893-1.052 6.712-3.04 1.593-1.764 2.508-4.193 2.508-6.667" class="cls-1"/><path id="path4121" d="m180 37.908-.016-.243c-.185-.096-.402-.195-.666-.301-2.067-.828-3.384.2-3.547.356l-.368.344c1.285.063 2.33.565 2.917.606.568.038 1.143-.186 1.678-.761" class="cls-1"/><path id="path4125" d="M172.833 37.392c-.382.587-.91 1.085-1.509 1.396h.181c1.163.046 2.282-.708 2.948-1.74.351-.536.773-.908 1.228-1.16-.963-.046-2.181.481-2.849 1.504" class="cls-1"/><path id="path4129" d="M178.723 40.55c-1.721.082-3.28-1.622-5.217-1.033-1.016.308-1.733 1.382-3.128 1.805-2.063.628-3.246-.926-5.246-.317-.226.068-.445.169-.654.305.849 2.193 2.645 4.005 5.049 4.773 4.212 1.345 8.765-1.003 10.11-5.217.072-.226.091-.328.144-.554-.327.11-.654.219-1.059.238" class="cls-1"/><path id="path4133" d="M167.461 40.588c.938.216 1.627.275 2.286.077.672-.207 1.213-.479 1.771-.955-.265-.032-.547-.087-.859-.159-1.778-.409-2.897.37-3.151.654.323-.474.806-.777 1.312-.968-.79.012-2.426.178-3.187 1.292l-.051.074c-.031-.11.708-1.694 2.826-1.817 2.12-.121 2.871-.708 4.009-2.914.106-.202 1.03-1.885 3.75-1.646.664.058 1.174.352 2.14-.118l.322-.188c-.977-1.488-2.387-2.58-4.205-3.16-4.214-1.345-8.765 1.003-10.108 5.215-.573 1.791-.476 3.644.147 5.283.472-.364 1.507-1.013 2.999-.669" class="cls-1"/></g></g></svg>