<svg xmlns="http://www.w3.org/2000/svg" id="Layer_1" data-name="Layer 1" viewBox="0 0 200 100"><defs><style>.cls-1{fill:#8a0051;fill-rule:evenodd}</style></defs><path d="m15.734 63.31 2.964-8.049 2.827 8.049h-5.792Zm8.673 8.112h2.718l-7.054-19.376h-2.688l-7.382 19.376h2.744l2.167-5.938h7.382l2.112 5.938ZM33.034 64.73c-2.518-.545-5.12-1.14-5.12-4.177 0-2.668 2.256-4.349 5.664-4.349 2.204 0 4.309.821 5.359 2.826l-2.292.956c-.184-.535-1.37-1.884-3.349-1.884-1.939 0-2.91 1.148-2.91 2.142 0 1.395 1.844 1.976 3.418 2.293 3.256.655 6.088 1.488 6.088 4.558 0 2.386-2.119 4.627-6.168 4.627-2.98 0-5.098-.997-6.117-3.079l2.614-.456c.656 1.142 1.842 1.636 3.61 1.636 2.191 0 3.473-.837 3.473-2.419 0-1.674-2.102-2.204-4.27-2.672ZM45.32 56.649h2.676v2.06H45.32v8.382c0 1.739 0 2.484 1.057 2.484.466 0 1.122-.187 1.619-.341v2.039c-.436.062-1.464.248-2.398.248-2.863 0-2.863-1.392-2.831-3.311v-9.501h-2.335v-2.06h2.335V53.13l2.553-1.062v4.581ZM52.699 56.687v2.638c1.4-2.783 4.046-2.846 5.042-2.877V59c-2.427.017-3.617.514-4.419 1.819-.658 1.066-.623 2.564-.623 3.829v6.772h-2.471V56.685h2.471ZM86.32 52.049v2.416L75.354 69.097h11.241v2.324H72.361v-2.517l11.02-14.467H72.37v-2.389h13.95ZM104.564 56.789v2.141c1.376-2.406 3.719-2.624 4.594-2.624 1.876 0 4.122.938 4.838 3.369.251.869.251 1.771.251 3.015v8.731h-2.464v-8.327c0-1.493 0-1.927-.157-2.425-.437-1.398-1.811-2.019-3.155-2.019-1.093 0-2.031.341-2.814 1.118-1.094 1.088-1.094 2.205-1.094 3.296v8.358h-2.473V56.789h2.473ZM142.68 68.813c-.922 1.449-2.598 2.907-5.615 2.907-5.207 0-7.173-4.013-7.173-7.618 0-4.165 2.266-7.939 6.956-7.939 1.839 0 4.416.554 5.842 2.929l-2.317.967c-.437-.965-1.38-2.08-3.432-2.08-4.064 0-4.302 4.63-4.302 5.937 0 4.854 2.79 5.904 4.456 5.904 1.908 0 2.883-.915 3.398-1.923l2.188.915ZM90.148 62.546h7.813c-.218-3.854-2.439-4.505-3.921-4.505-2.115 0-3.612 1.552-3.891 4.505Zm9.847 6.077c-.842 1.435-2.469 3.08-5.678 3.08-4.348 0-6.85-2.955-6.85-7.91 0-5.535 3.651-7.651 6.759-7.651 2.701 0 5.291 1.493 6.162 5.191.281 1.244.281 2.366.281 2.988H90.086c-.061 2.461.969 5.575 4.449 5.514 1.42-.024 2.42-.669 3.057-1.678l2.402.464ZM118.254 62.546h7.814c-.217-3.854-2.439-4.505-3.921-4.505-2.113 0-3.611 1.552-3.892 4.505Zm9.849 6.077c-.843 1.435-2.469 3.08-5.676 3.08-4.348 0-6.851-2.955-6.851-7.91 0-5.535 3.651-7.651 6.758-7.651 2.703 0 5.291 1.493 6.163 5.191.28 1.244.28 2.366.28 2.988h-10.583c-.062 2.461.973 5.575 4.449 5.514 1.42-.024 2.422-.669 3.058-1.678l2.402.464ZM156.192 71.437l-2.57.01s-.223-1.038-.294-2.171c-.747.775-2.132 2.379-4.932 2.379-2.863 0-4.987-1.698-4.987-4.186 0-.781.219-1.557.656-2.213.844-1.245 2.405-2.242 6.791-2.584l2.331-.187v-.374c0-1.526 0-4.078-3.286-4.078-2.068 0-2.772 1.003-3.01 1.908l-2.277-.95c.036-.079.077-.159.12-.242.874-1.618 2.59-2.615 5.071-2.615 1.366 0 3.135.343 4.288 1.246 1.64 1.243 1.6 3.691 1.6 3.691l.1 7.556s.087 2.196.401 2.81Zm-3.38-4.062c.374-.809.405-1.151.405-3.302-.962.156-2.264.342-3.857.686-2.738.59-3.204 1.622-3.204 2.648 0 1.184.934 2.181 2.769 2.181 1.712 0 3.174-.685 3.887-2.213ZM70.616 71.437l-2.571.01s-.223-1.038-.295-2.171c-.746.775-2.13 2.379-4.93 2.379-2.865 0-4.988-1.698-4.988-4.186 0-.781.218-1.557.656-2.213.844-1.245 2.405-2.242 6.788-2.584l2.334-.187v-.374c0-1.526 0-4.078-3.288-4.078-2.068 0-2.77 1.003-3.01 1.908l-2.276-.95c.037-.079.077-.159.121-.242.875-1.618 2.591-2.615 5.07-2.615 1.365 0 3.135.343 4.287 1.246 1.641 1.243 1.601 3.691 1.601 3.691l.099 7.556s.088 2.196.402 2.81Zm-3.38-4.062c.375-.809.404-1.151.404-3.302-.96.156-2.264.342-3.855.686-2.737.59-3.204 1.622-3.204 2.648 0 1.184.933 2.181 2.767 2.181 1.712 0 3.173-.685 3.888-2.213Z" class="cls-1"/><path d="M189.978 51.027c-.01-.09-.02-.18-.042-.269-.046-.178-.096-.357-.163-.529-.074-.182-.165-.358-.263-.528-.109-.188-.23-.367-.358-.544-.074-.103-.159-.2-.248-.291-.099-.102-.201-.203-.312-.291-.253-.2-.503-.404-.777-.573-.6-.368-1.199-.751-1.844-1.035-.779-.342-1.532-.748-2.336-1.027l-5.413-1.88c0-1.03.029-2.059 0-3.087-.046-1.526-.107-3.054-.225-4.577-.083-1.061-.21-2.117-.375-3.168-.129-.82-.324-1.628-.506-2.437-.042-.186-.104-.366-.165-.545-.055-.161-.115-.322-.181-.48-.059-.143-.125-.283-.195-.422-.064-.124-.133-.245-.208-.364-.066-.106-.141-.211-.217-.312-.07-.091-.143-.179-.221-.263-.07-.077-.145-.15-.223-.22-.07-.063-.145-.122-.223-.179-.071-.052-.145-.1-.22-.144-.07-.04-.141-.08-.217-.11-.131-.054-.264-.105-.4-.144-.113-.032-.229-.049-.344-.065-.087-.012-.174-.018-.26-.02-.148-.003-.298-.006-.445.005-.158.012-.316.031-.471.062-.167.033-.331.074-.492.128-.173.058-.342.128-.505.207-.182.09-.356.193-.528.301-.182.115-.361.234-.534.363-.301.227-.609.448-.883.705-1.13 1.062-2.241 2.145-3.326 3.252-.579.59-1.14 1.2-1.665 1.837-2.086 2.525-4.162 5.059-6.168 7.648-.891 1.148-1.693 2.364-2.517 3.559-.206.299-.398.608-.577.924-.309.553-.598 1.117-.881 1.684-.073.147-.131.303-.186.458-.054.148-.103.298-.143.451-.036.143-.068.289-.085.437-.014.135-.016.273-.008.409.005.068.025.135.047.2.024.071.056.137.092.202.04.071.087.136.137.2.054.07.109.137.171.199.133.132.27.26.415.38.149.123.303.241.465.346.281.185.573.357.863.526.127.074.26.137.389.205.046.023-.092-.048-.137-.073-.006-.002-.02-.01-.016-.009.008.002.016.008.022.012.071.037.143.074.214.112 1.783.931 3.572 1.849 5.346 2.795 1.783.95 3.566 1.904 5.328 2.894l3.961 2.225c-1.376 1.041-2.777 2.046-4.124 3.121-.514.411-.993.866-1.46 1.331-.379.378-.736.779-1.072 1.194-.27.331-.515.683-.744 1.044-.18.281-.337.578-.479.88-.108.229-.195.467-.27.709-.055.17-.09.343-.121.519-.018.105-.022.214-.028.322-.002.036.005.073.005.109.001.098-.003.193.003.29.005.09.016.18.03.268.014.086.032.171.055.254.021.079.049.158.079.235.029.074.064.147.1.218.036.069.074.14.121.202.092.125.184.249.292.359.109.109.228.21.353.301.125.092.26.173.396.248.139.075.282.141.428.201.145.061.292.126.445.159.553.122 1.111.233 1.672.31.275.038.555.053.831.031.958-.075 1.913-.172 2.862-.322 1.107-.174 2.206-.407 3.302-.646 1.292-.283 2.581-.582 3.86-.918.904-.238 1.824-.449 2.69-.802.682-.278 1.371-.544 2.047-.835.152-.064.296-.149.438-.233.128-.075.255-.157.377-.243.107-.076.212-.157.308-.247.081-.076.154-.161.22-.252.057-.076.104-.16.143-.248.035-.077.061-.159.079-.243.017-.076.025-.156.025-.233 0-.076-.01-.152-.023-.227-.016-.072-.037-.144-.064-.215-.026-.07-.061-.138-.098-.204s-.079-.13-.123-.19c-.044-.061-.092-.121-.143-.177-.099-.104-.2-.209-.307-.303-.093-.082-.193-.157-.294-.228-.1-.07-.202-.135-.305-.198-.706-.425-1.408-.859-2.118-1.278l-2.973-1.755c1.805-1.225 3.628-2.426 5.417-3.677.765-.534 1.517-1.086 2.242-1.672.622-.502 1.213-1.041 1.792-1.589.276-.26.521-.55.771-.836.113-.13.219-.269.318-.41.092-.128.184-.257.256-.397.233-.462.462-.926.656-1.406.078-.196.111-.406.155-.612.02-.095.028-.193.036-.29.008-.093.011-.188.01-.281-.005-.09-.011-.183-.021-.273Zm-22.197-12.153c1.008-1.046 2.018-2.09 3.044-3.119.187-.187.395-.356.594-.53.07-.061.143-.118.217-.175.057-.044.113-.089.174-.127.043-.027.089-.05.137-.07.05-.02.1-.04.154-.049.055-.009.113-.008.17-.006.029 0 .058.008.085.018.029.009.059.022.086.037.029.017.057.036.083.057.03.024.058.051.083.08.029.033.055.067.079.104.027.043.056.086.074.133.049.127.093.257.126.39.047.189.083.382.113.576.073.474.141.948.193 1.423.069.616.119 1.233.176 1.85l.306 3.283-3.659-.841-3.415-.562-.827-.063-.268-.007c.757-.801 1.508-1.608 2.273-2.402Zm-2.295 4.566.014-.02.019-.011.028-.003.044.007.128.036.331.127.451.2c1.162.497 2.324.995 3.488 1.491.77.329 1.542.655 2.312.984l1.523.65.135.061c.082 1.203.182 2.406.245 3.61.05.941.07 1.884.094 2.825.003.119-.007.238-.016.356-.004.066-.01.134-.02.201-.01.066-.023.132-.042.196-.02.062-.04.126-.072.184-.03.057-.072.108-.113.159-.02.025-.048.047-.074.067-.027.02-.057.04-.087.058-.031.018-.068.032-.102.045-.038.013-.078.025-.118.033-.049.009-.099.013-.148.016-.052 0-.104 0-.156-.007-.055-.007-.109-.019-.163-.032-.057-.015-.115-.03-.169-.052-.118-.05-.236-.103-.348-.166-.127-.072-.249-.154-.367-.241-.131-.096-.256-.199-.377-.306-.133-.117-.263-.237-.383-.365-.264-.282-.525-.568-.769-.868-.441-.539-.9-1.07-1.288-1.649-.535-.798-1.083-1.588-1.604-2.395-.311-.482-.629-.962-.888-1.476l-1.174-2.327-.253-.742-.058-.22-.035-.213-.003-.154.017-.059Zm12.981 20.628c.316.2.635.397.947.603.403.266.807.53 1.197.812.281.203.549.423.815.646.117.101.228.208.334.322.085.093.161.196.236.298.005.007.006.016.005.023 0 .018-.002.035-.008.053-.003.011-.012.021-.019.029-.012.011-.024.021-.038.026-.018.009-.038.013-.058.018-.027.006-.057.009-.085.011-1.543.116-3.088.221-4.63.342l-6.029.474-.187.011.087-.093.38-.336c.782-.581 1.538-1.198 2.344-1.744l3.415-2.314c.43.273.862.546 1.294.821Zm4.644-11.87c-.016.056-.038.11-.064.161-.031.06-.068.118-.111.169-.103.122-.212.242-.329.35-.252.23-.501.466-.779.663-.958.679-1.906 1.375-2.876 2.038-.667.457-1.357.884-2.038 1.322l-3.961 2.545c-.561-.322-1.122-.644-1.683-.964l-7.173-4.1c-1.62-.968-3.25-1.92-4.859-2.905-.303-.186-.588-.401-.878-.607-.092-.065-.178-.141-.266-.21-.028-.021-.059-.04-.085-.063-.061-.055-.122-.114-.179-.175-.035-.038-.064-.08-.092-.123-.028-.046-.055-.092-.075-.143-.02-.051-.038-.105-.046-.16-.009-.058-.01-.117-.001-.174.008-.063.026-.125.048-.185.023-.064.052-.128.087-.187.072-.121.148-.242.234-.354.1-.129.206-.252.32-.368.926-.953 1.867-1.893 2.799-2.843l2.511-2.562.12.414.305.727.02.045c.664 1.15 1.288 2.325 1.991 3.452.809 1.295 1.678 2.552 2.546 3.808.408.588.833 1.164 1.281 1.723.389.486.792.963 1.23 1.408.384.39.805.746 1.232 1.089.212.169.449.305.682.445.109.067.228.121.346.174.113.049.227.092.344.13.113.036.229.066.346.09.106.022.215.039.322.049.098.008.197.01.296.007.09-.002.182-.01.272-.025.084-.012.167-.032.249-.055.077-.021.152-.048.226-.079.068-.028.135-.062.201-.099.061-.035.124-.07.181-.114.104-.079.208-.16.302-.25.081-.077.155-.161.223-.25.087-.113.165-.232.236-.354.087-.148.17-.301.242-.458.081-.175.156-.354.217-.536.125-.381.244-.765.339-1.156.128-.527.27-1.055.326-1.596l.326-3.128c.742.345 1.501.659 2.226 1.037.708.369 1.387.797 2.074 1.204.081.049.156.104.228.164.102.085.2.174.294.269.049.05.092.107.13.164.038.057.072.118.098.18.024.062.04.128.053.193.005.033.003.066.001.1.001.035-.001.071-.012.102Z" style="fill:#efab00;fill-rule:evenodd"/></svg>