<svg xmlns="http://www.w3.org/2000/svg" id="Layer_1" data-name="Layer 1" viewBox="0 0 200 100"><defs><style>.cls-1{fill:#1c5c5f}</style></defs><g id="Layer_1-2" data-name="Layer 1-2"><path d="M33.995 43.292c.139.917.508 1.514 1.105 1.792.597.28 1.314.419 2.151.419.996 0 1.707-.125 2.135-.373.429-.248.643-.651.643-1.209 0-.399-.135-.746-.403-1.046-.268-.3-.782-.508-1.538-.627l-2.151-.359c-1.891-.298-3.3-.812-4.227-1.538-.927-.726-1.389-1.828-1.389-3.3 0-.756.165-1.433.492-2.03.329-.597.792-1.105 1.389-1.524.597-.419 1.31-.742 2.135-.97.826-.228 1.737-.343 2.733-.343 1.234 0 2.27.125 3.106.373.836.25 1.518.583 2.046 1 .528.419.927.917 1.195 1.494s.462 1.195.581 1.852l-3.733.478c-.179-.716-.492-1.244-.941-1.584-.449-.337-1.171-.508-2.165-.508-.558 0-1.02.044-1.389.135-.369.089-.657.204-.867.343-.208.139-.359.298-.449.478-.089.179-.135.349-.135.508 0 .498.155.861.462 1.09s.911.423 1.808.581l1.971.329c1.096.179 2 .409 2.719.687.716.28 1.29.623 1.717 1.03.429.409.726.891.895 1.449.169.558.254 1.205.254 1.941 0 1.475-.558 2.653-1.673 3.541-1.115.885-2.838 1.33-5.168 1.33-.937 0-1.828-.085-2.673-.254-.847-.169-1.604-.462-2.27-.881s-1.215-.976-1.643-1.673c-.429-.697-.673-1.574-.732-2.63h4.009ZM56.008 46.279c-.617.697-1.31 1.264-2.076 1.703s-1.758.657-2.973.657c-.697 0-1.359-.089-1.987-.268s-1.175-.458-1.643-.836c-.468-.379-.841-.861-1.119-1.449-.28-.587-.419-1.29-.419-2.106 0-1.076.238-1.951.716-2.628s1.105-1.205 1.881-1.584 1.647-.647 2.614-.806c.967-.159 1.947-.258 2.941-.3l2-.089v-.776c0-.957-.264-1.613-.792-1.971-.528-.359-1.149-.538-1.868-.538-1.653 0-2.598.627-2.838 1.881l-3.824-.359c.278-1.633.996-2.812 2.151-3.541 1.155-.726 2.707-1.09 4.66-1.09 1.195 0 2.211.145 3.046.433.836.29 1.508.703 2.016 1.24s.875 1.191 1.105 1.957c.228.766.343 1.627.343 2.584v9.858h-3.943V46.28l.006-.004Zm-.089-4.988-1.852.089c-.877.04-1.584.129-2.122.268s-.951.314-1.24.522c-.29.208-.482.452-.581.732s-.149.587-.149.927c0 .518.179.927.538 1.225s.855.449 1.494.449c1.076 0 1.951-.248 2.63-.746.377-.278.687-.631.927-1.06.238-.429.359-.961.359-1.598v-.806l-.004-.002ZM66.753 49.236c.079.397.194.716.343.957.149.238.347.429.597.568.248.139.548.234.895.284s.772.075 1.27.075c.776 0 1.383-.145 1.822-.433.439-.29.762-.673.97-1.151s.339-1.026.389-1.643.075-1.254.075-1.911v-.478c-.518.756-1.181 1.33-1.987 1.717-.806.389-1.717.583-2.733.583-2.191 0-3.828-.707-4.914-2.122-1.086-1.413-1.627-3.316-1.627-5.706 0-1.135.155-2.181.462-3.136.308-.957.752-1.776 1.33-2.465.578-.687 1.29-1.225 2.135-1.613.845-.389 1.796-.581 2.852-.581.836 0 1.647.159 2.435.478.786.32 1.508.907 2.165 1.762v-1.762h4.063v13.412c0 1.314-.135 2.485-.403 3.509-.268 1.026-.697 1.897-1.284 2.614s-1.355 1.258-2.3 1.627c-.947.369-2.096.554-3.449.554-1.254 0-2.326-.105-3.211-.314-.887-.208-1.617-.528-2.195-.957s-1.02-.967-1.33-1.613c-.31-.647-.512-1.399-.613-2.255h4.241Zm6.392-9.32c0-.937-.105-1.693-.314-2.27s-.482-1.02-.822-1.33c-.339-.308-.716-.512-1.135-.611s-.836-.149-1.254-.149c-.458 0-.891.079-1.3.238s-.766.419-1.076.776c-.31.359-.554.818-.732 1.373-.179.558-.268 1.225-.268 2.002 0 1.653.314 2.822.941 3.509s1.409 1.03 2.346 1.03c.518 0 1-.075 1.449-.224.449-.149.832-.389 1.149-.716.318-.327.568-.756.746-1.284s.268-1.169.268-1.927v-.419l.002.002ZM93.966 43.381c-.28 1.752-.98 3.082-2.106 3.987-1.125.905-2.763 1.359-4.914 1.359-2.588 0-4.535-.716-5.839-2.151-1.304-1.433-1.957-3.465-1.957-6.093 0-1.314.189-2.485.568-3.509.379-1.026.911-1.897 1.598-2.614.687-.716 1.508-1.26 2.465-1.627.957-.367 2.01-.552 3.165-.552 2.389 0 4.186.687 5.392 2.06 1.205 1.373 1.808 3.225 1.808 5.555v1.673H83.334c.04 1.254.359 2.235.957 2.941s1.494 1.06 2.689 1.06c1.653 0 2.628-.697 2.927-2.092h4.063l-.004.002Zm-3.854-4.66c0-1.076-.264-1.911-.792-2.509s-1.35-.897-2.465-.897c-.558 0-1.046.089-1.465.268-.419.179-.772.423-1.06.732-.29.31-.512.667-.673 1.076-.159.409-.25.851-.268 1.33h6.722ZM96.133 32.658h4.063v2.151c.617-.915 1.35-1.584 2.195-2.002s1.727-.627 2.644-.627c1.772 0 3.086.462 3.943 1.389.855.927 1.284 2.386 1.284 4.376v10.306h-4.182v-9.739c0-1.096-.208-1.842-.627-2.241-.419-.397-.976-.597-1.673-.597-.538 0-1 .079-1.389.238s-.752.389-1.09.687c-.28.28-.512.611-.703 1-.191.389-.284.812-.284 1.27v9.379h-4.182V32.657ZM141.432 46.279c-.617.697-1.31 1.264-2.076 1.703-.766.439-1.758.657-2.973.657-.697 0-1.359-.089-1.987-.268-.627-.179-1.175-.458-1.643-.836-.468-.379-.841-.861-1.119-1.449-.28-.587-.419-1.29-.419-2.106 0-1.076.238-1.951.716-2.628s1.105-1.205 1.881-1.584 1.647-.647 2.614-.806c.967-.159 1.947-.258 2.941-.3l2.002-.089v-.776c0-.957-.264-1.613-.792-1.971-.528-.359-1.149-.538-1.868-.538-1.653 0-2.598.627-2.838 1.881l-3.822-.359c.278-1.633.996-2.812 2.151-3.541 1.155-.726 2.707-1.09 4.66-1.09 1.195 0 2.211.145 3.046.433.836.29 1.508.703 2.016 1.24s.875 1.191 1.105 1.957c.228.766.343 1.627.343 2.584v9.858h-3.943V46.28l.002-.004Zm-.089-4.988-1.852.089c-.877.04-1.584.129-2.122.268s-.951.314-1.24.522c-.288.208-.482.452-.581.732s-.149.587-.149.927c0 .518.179.927.538 1.225s.855.449 1.494.449c1.076 0 1.951-.248 2.63-.746.377-.278.687-.631.927-1.06.238-.429.359-.961.359-1.598v-.806l-.004-.002ZM38.206 57.929h4.063v2.151c.617-.915 1.35-1.584 2.195-2.002.845-.419 1.727-.627 2.644-.627 1.772 0 3.086.462 3.943 1.389.855.927 1.284 2.386 1.284 4.376v10.306h-4.182v-9.739c0-1.096-.208-1.842-.627-2.241-.419-.397-.976-.597-1.673-.597-.538 0-1 .079-1.389.24-.389.159-.752.389-1.09.687-.28.28-.512.613-.703 1-.191.389-.284.812-.284 1.27v9.379h-4.182V57.928ZM54.775 57.929h4.063v2.151c.617-.915 1.35-1.584 2.195-2.002s1.727-.627 2.644-.627c1.772 0 3.086.462 3.943 1.389.855.927 1.284 2.386 1.284 4.376v10.306h-4.182v-9.739c0-1.096-.208-1.842-.627-2.241-.419-.397-.976-.597-1.673-.597-.538 0-1 .079-1.389.24-.389.159-.752.389-1.09.687-.28.28-.512.613-.703 1-.191.389-.284.812-.284 1.27v9.379h-4.182V57.928ZM79.059 74c-2.509 0-4.452-.716-5.825-2.151-1.373-1.433-2.06-3.485-2.06-6.154 0-1.274.185-2.423.552-3.451.369-1.026.895-1.891 1.584-2.598.687-.707 1.518-1.248 2.495-1.627.976-.377 2.06-.568 3.257-.568s2.31.191 3.287.568c.976.379 1.808.921 2.495 1.627.687.707 1.211 1.574 1.568 2.598.359 1.026.538 2.175.538 3.451s-.185 2.455-.554 3.481c-.369 1.026-.895 1.895-1.584 2.614-.687.716-1.518 1.264-2.495 1.643s-2.06.568-3.257.568Zm0-3.346c1.195 0 2.086-.429 2.673-1.284s.881-2.08.881-3.674-.294-2.808-.881-3.644-1.479-1.254-2.673-1.254-2.086.419-2.673 1.254-.881 2.05-.881 3.644.288 2.844.865 3.689c.578.847 1.473 1.27 2.689 1.27v-.002ZM86.885 57.929h4.839l3.495 10.842 3.495-10.842h4.63L97.192 73.52H93.01l-6.123-15.591h-.002ZM113.649 71.549c-.617.699-1.31 1.266-2.076 1.703s-1.758.657-2.973.657c-.697 0-1.359-.089-1.987-.268s-1.175-.458-1.643-.836c-.468-.379-.841-.861-1.119-1.449-.28-.587-.419-1.29-.419-2.106 0-1.076.238-1.951.716-2.628s1.105-1.205 1.881-1.584c.776-.377 1.647-.647 2.614-.806.967-.159 1.947-.258 2.941-.298l2-.089v-.776c0-.957-.264-1.613-.792-1.971-.528-.359-1.149-.538-1.868-.538-1.653 0-2.598.627-2.838 1.881l-3.824-.359c.278-1.633.996-2.812 2.151-3.541 1.155-.726 2.707-1.09 4.66-1.09 1.195 0 2.211.145 3.046.433.838.29 1.508.703 2.016 1.24s.877 1.191 1.105 1.957.343 1.627.343 2.584v9.858h-3.943v-1.971l.006-.006Zm-.089-4.987-1.852.089c-.877.04-1.584.129-2.12.268-.538.139-.951.314-1.24.522-.29.21-.482.452-.583.732-.099.28-.149.587-.149.927 0 .518.179.927.538 1.225s.855.449 1.492.449c1.076 0 1.951-.248 2.63-.746.379-.28.687-.631.927-1.06.238-.429.359-.961.359-1.598v-.806l-.002-.002ZM146.175 74c-2.509 0-4.451-.716-5.825-2.151s-2.06-3.485-2.06-6.154c0-1.274.185-2.423.554-3.451.367-1.026.895-1.891 1.584-2.598.687-.707 1.518-1.248 2.495-1.627.976-.377 2.06-.568 3.257-.568s2.31.191 3.287.568c.976.379 1.808.921 2.495 1.627s1.209 1.574 1.568 2.598c.359 1.026.538 2.175.538 3.451s-.185 2.455-.554 3.481-.895 1.895-1.584 2.614c-.687.716-1.518 1.264-2.495 1.643s-2.06.568-3.257.568h-.002Zm0-3.346c1.195 0 2.086-.429 2.673-1.284.587-.855.881-2.08.881-3.674s-.294-2.808-.881-3.644-1.479-1.254-2.673-1.254-2.086.419-2.673 1.254c-.587.836-.881 2.05-.881 3.644s.288 2.844.865 3.689c.578.847 1.473 1.27 2.687 1.27l.002-.002ZM155.886 57.929h4.063v2.151c.617-.915 1.35-1.584 2.195-2.002s1.727-.627 2.644-.627c1.772 0 3.086.462 3.943 1.389.855.927 1.284 2.386 1.284 4.376v10.306h-4.182v-9.739c0-1.096-.208-1.842-.627-2.241-.419-.397-.976-.597-1.673-.597-.538 0-1 .079-1.389.24-.389.159-.752.389-1.09.687-.28.28-.512.613-.703 1-.191.389-.284.812-.284 1.27v9.379h-4.182V57.928ZM31.008 57.929h4.182V73.52h-4.182zM125.011 32.658h4.182v15.593h-4.182zM127.063 30.561c1.258 0 2.28-1.02 2.28-2.28s-1.02-2.28-2.28-2.28-2.28 1.02-2.28 2.28 1.02 2.28 2.28 2.28M33.197 56.234c1.258 0 2.28-1.02 2.28-2.28s-1.02-2.28-2.28-2.28-2.28 1.02-2.28 2.28 1.02 2.28 2.28 2.28M131.902 58.175h4.182v15.347h-4.182zM133.93 56.396c1.258 0 2.28-1.02 2.28-2.28s-1.02-2.28-2.28-2.28-2.28 1.02-2.28 2.28 1.02 2.28 2.28 2.28M121.965 44.995c-.28.079-.564.135-.851.165s-.572.046-.851.046c-.538 0-.976-.145-1.314-.433-.339-.288-.508-.841-.508-1.657v-7.198h3.584v-3.257h-3.584v-4.152h-.508l-3.676 1.338v2.814h-2.449v3.257h2.449v7.288c0 1.931.413 3.306 1.238 4.122.826.818 2.096 1.225 3.808 1.225.498 0 1.02-.036 1.568-.105s1.109-.194 1.687-.373l-.597-3.076.004-.002ZM129.092 70.265c-.28.079-.564.135-.851.165-.29.03-.572.046-.851.046-.538 0-.976-.145-1.314-.433-.339-.288-.508-.841-.508-1.659v-7.198h3.584v-3.257h-3.584v-4.152h-.536l-3.646 1.328v2.824h-2.449v3.257h2.449v7.288c0 1.931.413 3.306 1.24 4.122.826.818 2.096 1.225 3.808 1.225.498 0 1.02-.036 1.568-.105s1.109-.194 1.687-.373l-.597-3.076Z" class="cls-1"/></g></svg>