<svg xmlns="http://www.w3.org/2000/svg" viewBox="0 0 200 100"><path fill="#fff" fill-rule="evenodd" d="M66.66 78.423c-.36.362-.36.946 0 1.306.36.362.946.362 1.306 0s.36-.946 0-1.306c-.36-.362-.946-.362-1.306 0Zm22.224-53.168c1.202-1.202 1.202-3.15 0-4.353-1.202-1.202-3.152-1.202-4.353 0-1.202 1.202-1.202 3.152 0 4.353s3.148 1.202 4.353 0ZM66.66 41.771c-.36.362-.36.946 0 1.306.36.362.946.362 1.306 0s.36-.946 0-1.306c-.36-.362-.946-.362-1.306 0ZM79.3 26.99c-.96.96-.96 2.522 0 3.482.96.96 2.518.96 3.482 0 .96-.96.96-2.522 0-3.482-.96-.96-2.518-.96-3.482 0Zm-4.359 5.218c-.722.72-.722 1.89 0 2.613.722.72 1.89.72 2.612 0 .722-.724.722-1.89 0-2.613s-1.89-.724-2.612 0Zm-4.328 5.248c-.48.482-.48 1.262 0 1.742.48.482 1.26.482 1.74 0s.48-1.26 0-1.742-1.26-.482-1.74 0Zm13.918-4.239c-1.202 1.202-1.202 3.152 0 4.353s3.148 1.202 4.353 0c1.202-1.202 1.202-3.15 0-4.353-1.202-1.202-3.152-1.202-4.353 0ZM66.66 54.086c-.36.362-.36.946 0 1.304.36.362.946.362 1.306 0s.36-.946 0-1.304c-.36-.362-.946-.362-1.306 0ZM79.3 39.304c-.96.962-.96 2.522 0 3.482.96.962 2.518.962 3.482 0 .96-.96.96-2.522 0-3.482s-2.518-.962-3.482 0Zm-4.359 5.218c-.722.72-.722 1.89 0 2.613.722.72 1.89.72 2.612 0 .722-.724.722-1.89 0-2.613-.722-.724-1.89-.724-2.612 0Zm-4.328 5.248c-.48.482-.48 1.262 0 1.742.48.482 1.26.482 1.74 0s.48-1.26 0-1.742-1.26-.482-1.74 0Zm13.918-4.532c-1.202 1.202-1.202 3.152 0 4.353s3.148 1.202 4.353 0c1.202-1.202 1.202-3.15 0-4.353-1.202-1.202-3.152-1.202-4.353 0ZM66.66 66.105c-.36.362-.36.946 0 1.306.36.362.946.362 1.306 0s.36-.946 0-1.306c-.36-.362-.946-.362-1.306 0Zm12.64-14.78c-.96.96-.96 2.522 0 3.482.96.962 2.518.962 3.482 0 .96-.962.96-2.522 0-3.482-.96-.962-2.518-.962-3.482 0Zm-4.359 5.216c-.722.72-.722 1.89 0 2.613.722.72 1.89.72 2.612 0 .722-.724.722-1.89 0-2.613s-1.89-.724-2.612 0Zm-4.328 5.25c-.48.482-.48 1.262 0 1.74.48.482 1.26.482 1.74 0s.48-1.258 0-1.74-1.26-.482-1.74 0Zm13.918-4.237c-1.202 1.202-1.202 3.152 0 4.353 1.202 1.202 3.148 1.202 4.353 0 1.202-1.202 1.202-3.15 0-4.353-1.202-1.202-3.152-1.202-4.353 0ZM79.3 63.64c-.96.96-.96 2.522 0 3.482.96.962 2.518.962 3.482 0 .96-.962.96-2.522 0-3.482-.96-.962-2.518-.962-3.482 0Zm-4.359 5.217c-.722.72-.722 1.89 0 2.613.722.72 1.89.72 2.612 0 .722-.724.722-1.89 0-2.613s-1.89-.724-2.612 0Zm-4.328 5.249c-.48.482-.48 1.262 0 1.74.48.482 1.26.482 1.74 0s.48-1.26 0-1.74c-.48-.482-1.26-.482-1.74 0Zm5.961-53.204c-1.202-1.202-3.152-1.202-4.353 0-1.202 1.202-1.202 3.152 0 4.353s3.148 1.202 4.353 0c1.202-1.202 1.202-3.15 0-4.353ZM54.35 41.771c-.36.362-.36.946 0 1.306.36.362.946.362 1.306 0s.36-.946 0-1.306c-.36-.362-.946-.362-1.306 0ZM70.472 26.99c-.96-.96-2.52-.96-3.482 0-.96.96-.96 2.522 0 3.482.96.96 2.518.96 3.482 0 .96-.96.96-2.522 0-3.482Zm-7.841 5.218c-.722.72-.722 1.89 0 2.613.722.72 1.89.72 2.612 0 .722-.724.722-1.89 0-2.613s-1.89-.724-2.612 0Zm-4.329 5.248c-.48.482-.48 1.262 0 1.742.48.482 1.26.482 1.74 0s.48-1.26 0-1.742-1.26-.482-1.74 0Zm6.293-12.201c1.202-1.202 1.202-3.15 0-4.353-1.202-1.202-3.152-1.202-4.353 0-1.202 1.202-1.202 3.152 0 4.353s3.148 1.202 4.353 0ZM42.369 41.771c-.36.362-.36.946 0 1.306.36.362.946.362 1.306 0s.36-.946 0-1.306c-.36-.362-.946-.362-1.306 0ZM58.493 26.99c-.96-.96-2.518-.96-3.482 0-.96.96-.96 2.522 0 3.482.96.96 2.518.96 3.482 0 .96-.96.96-2.522 0-3.482Zm-7.842 5.218c-.722.72-.722 1.89 0 2.613.722.72 1.89.72 2.612 0 .722-.724.722-1.89 0-2.613s-1.89-.724-2.612 0Zm-4.327 5.248c-.48.482-.48 1.262 0 1.742.48.482 1.26.482 1.74 0s.48-1.26 0-1.742-1.26-.482-1.74 0Zm5.961-16.554c-1.202-1.202-3.152-1.202-4.353 0-1.202 1.202-1.202 3.152 0 4.353s3.148 1.202 4.353 0c1.202-1.202 1.202-3.15 0-4.353ZM30.059 41.771c-.36.362-.36.946 0 1.306.36.362.946.362 1.306 0s.36-.946 0-1.306c-.36-.362-.946-.362-1.306 0ZM46.183 26.99c-.96-.96-2.518-.96-3.482 0-.96.96-.96 2.522 0 3.482.96.96 2.518.96 3.482 0 .96-.96.96-2.522 0-3.482Zm-7.842 5.218c-.722.72-.722 1.89 0 2.613.722.72 1.89.72 2.612 0 .722-.724.722-1.89 0-2.613s-1.89-.724-2.612 0Zm-4.327 5.248c-.48.482-.48 1.262 0 1.742.48.482 1.26.482 1.74 0s.48-1.26 0-1.742-1.26-.482-1.74 0Z"/><path fill="#fff" d="M101.74 28.894h2.199c.034 0 .065-.004.099-.004l2.578 4.98h2.714l-2.908-5.446c.376-.169.711-.383 1.004-.644.829-.743 1.244-1.749 1.244-3.021s-.413-2.261-1.239-2.981-1.987-1.082-3.483-1.082h-4.632v13.173h2.425v-4.976Zm0-6.351h2.144c.868 0 1.479.203 1.832.611s.529.949.529 1.623-.176 1.225-.529 1.646-.964.634-1.832.634h-2.144v-4.514Zm13.049 11.597c.953 0 1.773-.192 2.462-.575s1.182-.84 1.484-1.371l-1.62-1.122c-.242.344-.559.644-.955.9s-.863.385-1.406.385c-.815 0-1.426-.281-1.832-.842-.356-.491-.558-1.11-.602-1.855h6.559v-.868c0-1.472-.381-2.628-1.145-3.469-.762-.842-1.823-1.262-3.18-1.262s-2.463.45-3.316 1.348c-.854.898-1.279 2.081-1.279 3.547v.289c0 1.459.425 2.64 1.276 3.542.851.902 2.036 1.354 3.556 1.354h-.002Zm-.217-8.332c.634 0 1.121.203 1.461.607.341.404.508.896.503 1.475v.217h-4.175c.078-.574.251-1.059.519-1.456.379-.561.944-.842 1.692-.842v-.002Zm6.341 7.505c.727.552 1.759.828 3.099.828s2.365-.274 3.058-.824 1.041-1.288 1.041-2.216c0-.826-.266-1.47-.801-1.932-.535-.461-1.341-.806-2.419-1.036-1.05-.229-1.728-.432-2.031-.611-.305-.178-.457-.42-.457-.729s.125-.558.376-.75.649-.289 1.198-.289.965.113 1.23.339.399.535.399.928v.127h2.306v-.081c0-.928-.358-1.662-1.073-2.199s-1.666-.805-2.855-.805-2.133.263-2.836.787-1.054 1.221-1.054 2.089c0 .766.272 1.382.814 1.846.544.464 1.357.814 2.442 1.05 1.043.229 1.71.432 1.999.611s.434.448.434.81-.154.653-.462.874c-.307.221-.748.33-1.32.33s-1.018-.115-1.353-.344-.503-.584-.503-1.068v-.109l-2.326-.009v.081c0 .983.364 1.751 1.091 2.303h.004-.001Zm17.069-1.117-1.62-1.122c-.242.344-.559.644-.955.9s-.865.385-1.406.385c-.815 0-1.424-.281-1.832-.842-.356-.491-.558-1.11-.602-1.855h6.559v-.868c0-1.472-.381-2.628-1.145-3.469-.762-.842-1.823-1.262-3.18-1.262s-2.462.45-3.316 1.348c-.854.898-1.281 2.081-1.281 3.547v.289c0 1.459.425 2.64 1.276 3.542.851.902 2.036 1.354 3.556 1.354.953 0 1.773-.192 2.462-.575s1.182-.84 1.484-1.371Zm-4.161-6.388c.634 0 1.121.203 1.461.607.341.404.508.896.503 1.475v.217h-4.175c.079-.574.251-1.059.519-1.456.379-.561.944-.842 1.692-.842v-.002Zm10.588 7.808c.512-.289.868-.618 1.068-.986.018.222.058.45.118.678.06.229.129.416.208.561h2.298v-.145c-.115-.254-.205-.554-.272-.9s-.099-.716-.099-1.108v-4.378c0-1.103-.346-1.925-1.036-2.465s-1.652-.81-2.882-.81-2.222.281-2.977.842c-.754.561-1.131 1.251-1.131 2.072v.109h2.326v-.109c0-.337.129-.63.385-.877s.692-.371 1.308-.371 1.045.15 1.29.448c.244.298.367.683.367 1.154v.579h-1.945c-1.225 0-2.239.266-3.044.801-.805.533-1.209 1.32-1.209 2.358 0 .983.316 1.726.949 2.231.634.503 1.412.755 2.335.755.784 0 1.433-.145 1.945-.434l-.002-.004Zm-2.867-2.742c0-.471.182-.835.547-1.094.365-.259.916-.39 1.652-.39h1.638v1.059c0 .506-.214.956-.642 1.348-.428.392-.941.588-1.539.588s-.992-.138-1.256-.411c-.266-.274-.399-.641-.399-1.099Zm10.75-3.328c.157-.392.408-.716.752-.972s.745-.385 1.204-.385c.145 0 .279.005.402.018s.24.03.348.055v-2.063c-.055-.025-.148-.051-.281-.081s-.263-.046-.39-.046c-.464 0-.875.136-1.23.408s-.637.591-.842.958h-.046l-.064-1.103h-2.216v9.536h2.361v-6.325h.002Zm12.134 3.13v-.09h-2.289v.081c0 .446-.146.84-.439 1.181s-.785.512-1.479.512c-.773 0-1.343-.281-1.713-.842s-.556-1.285-.556-2.171v-.489c0-.893.189-1.618.565-2.176.378-.558.949-.836 1.715-.836.651 0 1.133.164 1.443.492s.466.725.466 1.189v.09h2.289l-.009-.118c-.03-.918-.399-1.719-1.103-2.407-.706-.688-1.731-1.031-3.076-1.031-1.429 0-2.569.445-3.42 1.334s-1.276 2.077-1.276 3.559v.289c0 1.479.425 2.663 1.276 3.556.851.893 1.991 1.339 3.42 1.339 1.352 0 2.388-.349 3.108-1.05.72-.699 1.082-1.505 1.082-2.416l-.004.002v.002Zm8.919-5.687c-.575-.565-1.311-.845-2.202-.845-.669 0-1.248.132-1.733.399-.485.265-.879.607-1.181 1.022v-5.564h-2.352v13.87h2.352v-6.46c.182-.439.438-.785.769-1.036.332-.251.727-.376 1.186-.376.519 0 .926.141 1.226.425.298.284.448.761.448 1.429v6.016h2.352v-6.116c0-1.279-.288-2.201-.865-2.763h-.002.002Zm-65.408 25.414c1.17-1.094 1.756-2.605 1.756-4.528v-.833c0-1.923-.586-3.434-1.756-4.528s-2.628-1.643-4.369-1.643h-4.253v13.173h4.253c1.743 0 3.199-.547 4.369-1.643v.002Zm-6.206-.211v-9.455h1.809c1.103 0 1.992.367 2.668 1.099s1.013 1.789 1.013 3.171v.905c0 1.382-.337 2.441-1.013 3.176s-1.565 1.105-2.668 1.105h-1.809v-.002Zm16.881-7.144c-.69-.54-1.652-.81-2.882-.81s-2.222.281-2.977.842c-.754.561-1.131 1.251-1.131 2.072v.109h2.326v-.109c0-.337.129-.63.385-.877s.692-.371 1.308-.371 1.045.15 1.29.448c.244.298.367.683.367 1.154v.579h-1.945c-1.225 0-2.239.266-3.044.801-.805.533-1.209 1.32-1.209 2.358 0 .983.316 1.726.949 2.231.634.503 1.412.755 2.335.755.784 0 1.433-.145 1.945-.434s.868-.618 1.068-.986c.018.222.058.45.118.678.06.229.129.416.208.561h2.298v-.145c-.115-.254-.205-.554-.272-.9s-.099-.716-.099-1.108v-4.378c0-1.103-.346-1.925-1.036-2.465l-.002-.004Zm-1.317 5.578c0 .506-.214.956-.642 1.348s-.941.588-1.539.588-.992-.138-1.256-.411c-.266-.274-.399-.641-.399-1.099s.182-.835.547-1.094c.365-.259.916-.39 1.652-.39h1.638v1.059Zm9.049-4.379v-1.736h-1.863v-2.28h-2.343v2.28h-1.519v1.736h1.511v5.121c0 1.013.252 1.758.755 2.234s1.168.715 1.996.715c.302 0 .581-.028.836-.086s.457-.122.602-.194v-1.736c-.145.055-.291.099-.439.131-.148.034-.295.049-.439.049-.314 0-.552-.085-.715-.254s-.244-.468-.244-.896v-5.084h1.863v.002-.002Zm9.404 5.645v-4.378c0-1.103-.346-1.925-1.036-2.465s-1.652-.81-2.882-.81-2.223.281-2.977.842-1.131 1.251-1.131 2.072v.109h2.326v-.109c0-.337.127-.63.385-.877.256-.247.692-.371 1.308-.371s1.045.15 1.288.448c.244.298.367.683.367 1.154v.579h-1.945c-1.225 0-2.239.266-3.044.801-.805.533-1.207 1.32-1.207 2.358 0 .983.316 1.726.949 2.231.634.503 1.412.755 2.335.755.784 0 1.433-.145 1.945-.434s.868-.618 1.068-.986c.018.222.056.45.118.678.06.229.129.416.208.561h2.298v-.145c-.115-.254-.205-.554-.272-.9s-.099-.716-.099-1.108l-.002-.004Zm-2.352-1.267c0 .506-.214.956-.642 1.348s-.941.588-1.539.588-.992-.138-1.258-.411c-.265-.274-.399-.641-.399-1.099s.182-.835.547-1.094c.365-.259.916-.39 1.652-.39h1.638v1.059h.002Zm-25.821 15.322c-.711-.618-1.758-1.117-3.139-1.498-1.32-.362-2.179-.676-2.575-.941s-.593-.646-.593-1.14.187-.928.561-1.23.956-.452 1.747-.452 1.376.185 1.777.556.602.858.602 1.461v.171h2.425v-.191c0-1.165-.438-2.107-1.311-2.827-.875-.72-2.042-1.082-3.501-1.082s-2.626.346-3.478 1.036c-.854.69-1.279 1.593-1.279 2.711.005 1.062.348 1.89 1.027 2.488.678.596 1.717 1.085 3.116 1.465 1.322.349 2.192.679 2.61.986s.628.736.628 1.285-.219 1.001-.656 1.339c-.438.339-1.066.506-1.886.506s-1.458-.173-1.913-.521c-.455-.346-.683-.87-.683-1.571v-.171h-2.471v.199c0 1.267.469 2.243 1.406 2.931s2.162 1.031 3.669 1.031 2.723-.346 3.628-1.041 1.357-1.641 1.357-2.841-.356-2.045-1.068-2.665v.006Zm10.996.023-.009-.118c-.03-.918-.399-1.719-1.105-2.407s-1.731-1.031-3.076-1.031c-1.429 0-2.569.445-3.42 1.334s-1.276 2.077-1.276 3.559v.289c0 1.479.425 2.663 1.276 3.556s1.991 1.339 3.42 1.339c1.352 0 2.388-.349 3.108-1.05.72-.699 1.082-1.505 1.082-2.416v-.09h-2.289v.081c0 .446-.146.84-.439 1.181s-.785.512-1.479.512c-.773 0-1.343-.281-1.715-.842-.371-.561-.556-1.285-.556-2.171v-.489c0-.893.189-1.618.566-2.176.376-.558.948-.836 1.713-.836.651 0 1.133.164 1.443.492.311.328.466.725.466 1.189v.09h2.289v.004Zm5.684-3.556c-1.424 0-2.575.445-3.452 1.334s-1.316 2.077-1.316 3.559v.289c0 1.479.439 2.663 1.316 3.556s2.028 1.339 3.452 1.339 2.583-.446 3.461-1.339 1.316-2.077 1.316-3.556v-.289c0-1.484-.439-2.67-1.316-3.559-.877-.889-2.031-1.334-3.461-1.334Zm2.361 5.284c0 .918-.201 1.643-.605 2.176-.404.535-.99.801-1.756.801s-1.352-.266-1.756-.801c-.404-.533-.607-1.258-.607-2.176v-.489c0-.923.205-1.65.616-2.181.409-.531.992-.796 1.745-.796s1.343.265 1.751.796.611 1.258.611 2.181v.489h.002Zm6.697-7.292h-2.343v2.28h-1.519v1.736h1.511v5.121c0 1.013.252 1.758.755 2.234s1.168.715 1.994.715c.302 0 .581-.028.836-.086s.457-.122.602-.194v-1.736c-.145.055-.291.099-.439.131-.148.034-.295.049-.439.049-.314 0-.552-.085-.715-.254s-.244-.468-.244-.896v-5.084h1.863v-1.736h-1.863v-2.28l.002.002v-.002Zm3.251-2.054h2.361v13.87h-2.361v-13.87Zm12.633 11.716V63.69c0-1.103-.346-1.925-1.036-2.465s-1.652-.81-2.882-.81-2.223.281-2.977.842-1.131 1.251-1.131 2.072v.109h2.326v-.109c0-.337.127-.63.385-.877.256-.247.692-.371 1.308-.371s1.045.15 1.288.448.367.683.367 1.154v.579H144.9c-1.225 0-2.239.266-3.044.801-.805.533-1.207 1.32-1.207 2.358 0 .983.316 1.726.949 2.231.634.503 1.412.755 2.335.755.784 0 1.433-.145 1.945-.434.512-.289.868-.618 1.068-.986.018.222.056.45.118.678.06.229.129.416.208.561h2.298v-.145c-.115-.254-.205-.554-.272-.9s-.099-.716-.099-1.108l-.002-.004Zm-2.352-1.267c0 .506-.214.956-.642 1.348s-.941.588-1.539.588-.992-.138-1.258-.411c-.265-.274-.399-.641-.399-1.099s.182-.835.547-1.094c.365-.259.916-.39 1.652-.39h1.638v1.059h.002Zm9.647-6.305c-.591 0-1.131.12-1.62.362s-.872.558-1.149.949h-.055l-.064-1.122h-2.208v9.536h2.352v-6.513c.192-.422.469-.754.828-.995.358-.242.755-.362 1.189-.362.524 0 .93.134 1.216.402s.431.729.431 1.38v6.088h2.352v-6.026c0-1.362-.302-2.321-.905-2.873s-1.392-.828-2.37-.828l.002.002Zm11.566 1.212c-.247-.362-.595-.653-1.041-.874s-.979-.33-1.601-.33c-1.218 0-2.204.448-2.959 1.343-.754.896-1.131 2.049-1.131 3.461v.289c0 1.412.367 2.566 1.099 3.461.732.896 1.733 1.343 3 1.343.616 0 1.159-.127 1.632-.379s.819-.57 1.036-.949h.046l.064 1.149h2.208v-13.87h-2.352v5.358-.002Zm0 5.483c-.169.374-.431.701-.787.981s-.791.42-1.302.42c-.754 0-1.315-.274-1.683-.819-.369-.545-.552-1.241-.552-2.086v-.471c0-.845.185-1.539.556-2.086.371-.545.93-.819 1.678-.819.531 0 .971.139 1.322.416.349.277.607.607.769.986v3.478Z"/></svg>