<svg xmlns="http://www.w3.org/2000/svg" data-name="Layer 1" viewBox="0 0 200 100"><g data-name="Layer 3"><path d="M40.507 15.16h1.713v69.772h-1.713V15.16Z" style="fill:#0058a1"/><path d="M55.642 51.65h-3.288v10.739h3.288c1.221.083 2.407-.427 3.186-1.371.799-1.199 1.171-2.632 1.057-4.068.094-1.4-.294-2.789-1.101-3.937-.773-.926-1.938-1.431-3.142-1.363Zm-5.198 12.438V49.995h5.359c1.686-.109 3.333.535 4.498 1.757 1.045 1.176 1.565 2.877 1.56 5.103 0 2.284-.54 4.061-1.619 5.329-1.135 1.295-2.801 1.996-4.52 1.903h-5.278ZM64.989 58.015h5.614c.038-.794-.222-1.574-.729-2.187-1.147-1.029-2.885-1.029-4.032 0-.522.613-.822 1.383-.853 2.187Zm5.577 2.741h1.713c-.132 1.04-.653 1.991-1.458 2.661-.854.671-1.918 1.017-3.004.977-1.284.053-2.522-.484-3.361-1.458-.868-1.109-1.306-2.494-1.232-3.901-.088-1.463.346-2.91 1.225-4.083.834-.984 2.08-1.523 3.368-1.458 1.282-.077 2.533.42 3.412 1.356.868 1.08 1.299 2.445 1.21 3.828v.467c.007.1.007.199 0 .299h-7.451c-.042.901.243 1.786.802 2.493.545.603 1.332.927 2.143.882.623.024 1.235-.167 1.735-.54.471-.386.785-.93.882-1.531l.015.007ZM75.553 59.05c-.08 1.009.176 2.017.729 2.865.563.667 1.411 1.024 2.282.962.875.04 1.713-.356 2.238-1.057.577-.886.853-1.934.787-2.989.054-.985-.235-1.959-.817-2.756-.546-.664-1.372-1.034-2.231-.999-.868-.048-1.703.337-2.231 1.028-.567.873-.833 1.907-.758 2.945Zm-1.619 8.887V53.866h1.677v1.458c.374-.555.874-1.015 1.458-1.341 1.759-.839 3.86-.414 5.154 1.043.862 1.125 1.294 2.521 1.218 3.937.077 1.431-.36 2.843-1.232 3.981-.798.97-2.004 1.509-3.259 1.458-.653.017-1.301-.115-1.896-.386-.578-.264-1.079-.671-1.458-1.181v5.103h-1.662ZM91.235 62.725c-.483.522-1.059.95-1.699 1.261-.601.277-1.256.419-1.917.416-.889.055-1.765-.238-2.442-.817-.606-.588-.928-1.41-.882-2.253-.044-.821.273-1.62.868-2.187.752-.602 1.671-.958 2.632-1.021l1.254-.109c.542-.031 1.079-.116 1.604-.255.162-.051.301-.156.394-.299.08-.262.112-.536.095-.809.027-.465-.191-.911-.576-1.174-.524-.299-1.126-.436-1.728-.394-.637-.045-1.271.125-1.801.481-.417.347-.642.873-.605 1.414h-1.619v-.08c-.042-.94.36-1.845 1.086-2.442.862-.643 1.923-.96 2.996-.897 1.063-.085 2.124.184 3.018.766.682.606 1.041 1.496.97 2.406v5.103c-.029.292.021.587.146.853.133.141.325.211.518.19h.182l.262-.044v1.327c-.18.052-.362.094-.547.124-.148.01-.297.01-.445 0-.461.034-.919-.098-1.29-.372-.304-.291-.462-.703-.43-1.123l-.044-.066Zm-.16-3.843c-.747.325-1.543.522-2.355.583l-.889.124c-.494.048-.963.241-1.349.554-.289.317-.437.738-.408 1.167-.029.443.145.875.474 1.174.393.297.879.442 1.371.408.817.022 1.616-.235 2.267-.729.567-.418.898-1.082.889-1.786v-1.495ZM95.012 64.088V53.881h1.662v1.83c.215-.616.605-1.156 1.123-1.553.506-.352 1.112-.531 1.728-.51h.445v1.808h-.408c-.769-.06-1.527.205-2.092.729-.521.605-.783 1.391-.729 2.187v5.687l-1.728.029ZM104.672 61.507c-.035.319.034.642.197.919.197.18.464.265.729.233h.926v1.458c-.292.051-.547.095-.773.117-.201.025-.403.037-.605.036-.605.064-1.212-.103-1.699-.467-.378-.467-.554-1.065-.488-1.662V55.28h-1.516v-1.414h1.524v-2.858h1.721v2.858h1.859v1.363h-1.845l-.029 6.277ZM120.514 64.088v-6.292c.067-.73-.077-1.464-.416-2.114-.367-.412-.909-.624-1.458-.569-.725-.042-1.43.241-1.925.773-.498.616-.743 1.398-.685 2.187v6.044h-1.75v-6.321c.07-.731-.077-1.466-.423-2.114-.362-.419-.908-.631-1.458-.569-.725-.036-1.429.249-1.925.78-.516.608-.777 1.391-.729 2.187v6.044h-1.713V53.917h1.64v1.458c.338-.532.804-.971 1.356-1.276.571-.308 1.211-.466 1.859-.459 1.168-.064 2.264.564 2.8 1.604.392-.507.889-.922 1.458-1.218.562-.261 1.174-.393 1.794-.386.595-.012 1.186.11 1.728.357.489.207.904.558 1.188 1.006.157.291.263.607.313.933.077.57.109 1.145.095 1.721v6.43h-1.75ZM125.647 58.015h5.614c.038-.794-.222-1.574-.729-2.187-1.149-1.03-2.89-1.03-4.039 0-.515.616-.812 1.385-.846 2.187Zm5.577 2.741h1.699c-.135 1.039-.655 1.989-1.458 2.661-.854.671-1.918 1.017-3.004.977-1.284.053-2.522-.484-3.361-1.458-.874-1.106-1.312-2.493-1.232-3.901-.088-1.463.346-2.91 1.225-4.083.832-.987 2.079-1.527 3.368-1.458 1.282-.076 2.532.42 3.412 1.356.865 1.081 1.296 2.446 1.21 3.828v.766h-7.422c-.041.899.241 1.784.795 2.493.548.603 1.338.927 2.151.882.623.023 1.235-.168 1.735-.54.471-.386.785-.93.882-1.531v.007ZM141.169 64.088v-6.292c.068-.727-.096-1.456-.467-2.085-.412-.428-.999-.64-1.589-.576-.827-.052-1.639.244-2.238.817-.564.632-.851 1.465-.795 2.311v5.833h-1.721V53.889h1.64v1.458c.351-.551.835-1.004 1.407-1.32.582-.295 1.228-.443 1.881-.43.666-.019 1.329.101 1.947.35.505.215.93.582 1.218 1.05.169.264.286.559.343.868.088.525.124 1.057.109 1.589v6.627l-1.735.007ZM147.198 61.507c-.035.319.034.642.197.919.195.184.463.269.729.233h.926v1.458c-.284.051-.54.095-.766.117-.201.025-.403.037-.605.036-.605.064-1.212-.103-1.699-.467-.378-.467-.554-1.065-.488-1.662V55.28h-1.524v-1.414h1.524v-2.858h1.721v2.858h1.837v1.363h-1.837l-.015 6.277ZM50.867 84.677v-8.858h-1.684v-1.363h1.684v-1.509c-.053-.686.152-1.368.576-1.91.461-.45 1.093-.678 1.735-.627h.452l.817.109v1.546l-.467-.073h-.299c-.318-.036-.633.09-.838.335-.199.392-.282.831-.241 1.269v.86h1.845v1.363h-1.852v8.858h-1.728ZM56.575 79.552c-.073 1.037.215 2.068.817 2.916.573.688 1.439 1.064 2.333 1.013.886.051 1.743-.326 2.304-1.013 1.081-1.794 1.081-4.039 0-5.833-.562-.686-1.419-1.06-2.304-1.006-.896-.055-1.764.319-2.34 1.006-.597.85-.883 1.88-.809 2.916Zm-1.757 0c-.091-1.448.367-2.877 1.283-4.003.925-.997 2.244-1.531 3.602-1.458 1.365-.088 2.7.432 3.645 1.422 1.716 2.398 1.716 5.622 0 8.02-.925.997-2.244 1.531-3.602 1.458-1.371.079-2.707-.455-3.645-1.458-.905-1.123-1.362-2.541-1.283-3.981ZM66.039 84.677V74.47h1.662v1.83c.215-.61.599-1.146 1.108-1.546.508-.348 1.112-.527 1.728-.51h.452v1.815h-.408c-.768-.058-1.526.206-2.092.729-.521.605-.783 1.391-.729 2.187v5.694l-1.721.007ZM77.871 84.677V70.613h10.025v1.75H79.76v4.199h7.517v1.64H79.76v4.717h8.297v1.757H77.872ZM96.338 79.493c.075-1.015-.198-2.025-.773-2.865-.562-.665-1.407-1.022-2.275-.962-.876-.043-1.716.35-2.246 1.05-.576.889-.852 1.939-.787 2.996-.057.983.231 1.956.817 2.749.544.672 1.375 1.046 2.238 1.006.868.04 1.701-.347 2.231-1.035.579-.866.858-1.898.795-2.938Zm1.604-8.88v14.064H96.28v-1.29c-.394.501-.891.911-1.458 1.203-.574.273-1.202.41-1.837.401-1.254.05-2.46-.49-3.259-1.458-.859-1.124-1.29-2.517-1.218-3.93-.075-1.434.359-2.849 1.225-3.995.796-.968 1.999-1.508 3.252-1.458.653-.012 1.301.123 1.896.394.576.271 1.077.679 1.458 1.188v-5.103l1.604-.015ZM101.661 74.455v6.27c-.054.729.124 1.457.51 2.078.415.434 1.007.651 1.604.591.844.059 1.67-.262 2.253-.875.543-.743.802-1.656.729-2.574v-5.504h1.721v10.207h-1.64v-1.531c-.329.567-.808 1.031-1.385 1.341-.619.31-1.305.462-1.998.445-.639.018-1.274-.107-1.859-.365-.498-.212-.92-.571-1.21-1.028-.169-.267-.285-.564-.343-.875-.088-.525-.124-1.057-.109-1.589v-6.62l1.728.029ZM117.35 77.853c-.003-.618-.268-1.206-.729-1.619-.534-.406-1.196-.608-1.866-.569-.838-.042-1.642.332-2.151.999-.545.852-.8 1.857-.729 2.865-.073 1.025.183 2.046.729 2.916.471.67 1.252 1.053 2.071 1.013 1.428.124 2.686-.934 2.81-2.362.002-.02.003-.039.004-.059h1.64c-.029 1.112-.508 2.164-1.327 2.916-.91.741-2.066 1.111-3.237 1.035-1.266.057-2.486-.483-3.295-1.458-1.623-2.417-1.603-5.58.051-7.976.861-.986 2.127-1.523 3.434-1.458 1.119-.057 2.22.301 3.091 1.006.782.691 1.231 1.683 1.232 2.727l-1.728.022ZM127.054 83.313c-.485.522-1.063.947-1.706 1.254-.597.283-1.25.428-1.91.423-.889.055-1.765-.238-2.442-.817-.608-.589-.93-1.414-.882-2.26-.045-.821.272-1.62.868-2.187.749-.604 1.665-.963 2.625-1.028l1.218-.131c.542-.031 1.079-.117 1.604-.255.161-.048.299-.155.386-.299.084-.261.116-.536.095-.809.029-.464-.187-.909-.569-1.174-.524-.299-1.126-.436-1.728-.394-.637-.045-1.271.125-1.801.481-.416.345-.641.868-.605 1.407h-1.626v-.073c-.039-.941.366-1.845 1.094-2.442.862-.643 1.923-.96 2.996-.897 1.059-.094 2.119.162 3.018.729.686.6 1.046 1.49.97 2.399v5.103c-.028.292.022.587.146.853.13.14.32.211.51.19h.19l.262-.044v1.327c-.18.051-.362.089-.547.117-.147.022-.296.034-.445.036-.461.036-.919-.096-1.29-.372-.3-.297-.457-.709-.43-1.13v-.007Zm-.16-3.842c-.749.325-1.548.523-2.362.583l-.882.124c-.495.045-.965.238-1.349.554-.289.317-.437.738-.408 1.167-.029.443.145.875.474 1.174.391.294.875.439 1.363.408.819.023 1.621-.234 2.275-.729.567-.418.898-1.082.889-1.786v-1.495ZM133.025 82.074c-.035.319.034.642.197.919.199.178.465.26.729.226h.365l.561-.036v1.458l-.773.117c-.226 0-.423.036-.605.036-.605.063-1.211-.104-1.699-.467-.375-.468-.551-1.066-.488-1.662v-6.861h-1.524v-1.363h1.546v-2.858h1.721v2.858h1.845v1.363h-1.845l-.029 6.27ZM136.342 72.596v-1.961h1.713v1.961h-1.713Zm0 12.103V74.492h1.713v10.207h-1.713ZM141.344 79.552c-.069 1.037.219 2.066.817 2.916.574.687 1.439 1.063 2.333 1.013.888.051 1.747-.326 2.311-1.013 1.081-1.794 1.081-4.039 0-5.833-.565-.686-1.424-1.06-2.311-1.006-.893-.054-1.759.32-2.333 1.006-.603.847-.892 1.879-.817 2.916Zm-1.757 0c-.085-1.447.373-2.874 1.283-4.003 2.034-1.899 5.191-1.899 7.225 0 1.716 2.398 1.716 5.622 0 8.02-2.031 1.906-5.194 1.906-7.225 0-.92-1.129-1.378-2.564-1.283-4.017ZM157.719 84.677v-6.292c.069-.726-.091-1.455-.459-2.085-.413-.426-.999-.638-1.589-.576-.827-.052-1.639.244-2.238.817-.567.631-.856 1.464-.802 2.311v5.833h-1.713V74.478h1.64v1.458c.348-.55.83-1.004 1.4-1.32.583-.294 1.228-.442 1.881-.43.666-.02 1.329.099 1.947.35.518.209.957.577 1.254 1.05.169.267.285.564.343.875.088.525.124 1.057.109 1.589v6.627h-1.772ZM63.531 19.571c-.16.306-.299.481-.277.729s.27.401.386.642c.109-.277.284-.488.262-.729s-.321-.503-.372-.663M67.65 19.571c.16.306.299.481.277.729s-.27.401-.386.642c-.109-.277-.284-.488-.262-.729s.321-.503.372-.663M61.183 19.374c.153 0 .277-.124.277-.277s-.124-.277-.277-.277c-.153 0-.277.124-.277.277 0 .153.124.277.277.277M61.343 19.79c0-.153-.124-.277-.277-.277-.153 0-.277.124-.277.277s.124.277.277.277c.153 0 .277-.124.277-.277M61.504 20.461c0-.153-.124-.277-.277-.277-.153 0-.277.124-.277.277s.124.277.277.277c.153 0 .277-.124.277-.277M62.714 18.069c.153 0 .277-.123.278-.276s-.123-.277-.276-.278h-.001c-.153 0-.277.125-.276.278 0 .153.124.276.276.276M62.029 18.281c.153 0 .277-.124.277-.277s-.124-.277-.277-.277c-.153 0-.277.124-.277.277 0 .153.124.277.277.277M61.489 18.762c.153 0 .277-.124.277-.277-.025-.155-.171-.26-.326-.235-.121.02-.216.114-.235.235 0 .153.124.277.277.277h.007M63.443 18.135c.153 0 .277-.124.277-.277s-.124-.277-.277-.277c-.153 0-.277.124-.277.277 0 .153.124.277.277.277M64.128 18.339c.153 0 .277-.124.277-.277v-.007c0-.153-.124-.277-.277-.277s-.277.124-.277.277c-.004.153.117.28.27.284h.007M64.777 18.645c.153 0 .277-.124.277-.277s-.124-.277-.277-.277c-.153 0-.277.124-.277.277 0 .153.124.277.277.277M69.728 19.119c0 .153.124.277.277.277s.277-.124.277-.277-.124-.277-.277-.277-.277.124-.277.277M70.092 19.513c-.153 0-.277.125-.276.278 0 .153.124.276.276.276.153 0 .277-.123.278-.276s-.123-.277-.276-.278h-.001M69.961 20.184c-.153 0-.277.124-.277.277s.124.277.277.277c.153 0 .277-.124.277-.277 0-.153-.124-.277-.277-.277M68.466 18.069c.153 0 .277-.124.277-.277s-.124-.277-.277-.277c-.153 0-.277.124-.277.277 0 .153.124.277.277.277M69.159 18.281c.153 0 .277-.124.277-.277s-.124-.277-.277-.277c-.153 0-.277.124-.277.277 0 .153.124.277.277.277M69.698 18.762c.153 0 .277-.124.277-.277s-.124-.277-.277-.277-.277.124-.277.277.124.277.277.277M67.745 18.135c.153 0 .277-.124.277-.277s-.124-.277-.277-.277c-.153 0-.277.124-.277.277 0 .153.124.277.277.277M67.059 18.339c.153 0 .277-.124.277-.277v-.007c-.004-.15-.127-.27-.277-.27-.153 0-.277.123-.278.276s.123.277.276.278h.001M66.133 18.361c0 .153.124.277.277.277.153 0 .277-.124.277-.277s-.124-.277-.277-.277c-.153 0-.277.124-.277.277M65.12 19.863h.306v-1.218c-.106-.016-.209-.048-.306-.095v1.312ZM66.068 18.58c-.099.047-.205.079-.313.095v1.188h.313V18.58ZM65.412 17.267v-.729c-.358.074-.63.367-.678.729h.678ZM65.776 17.267h.671c-.054-.36-.323-.649-.678-.729l.007.729ZM64.741 17.61c.092.397.445.678.853.678.407.002.76-.281.846-.678h-1.699ZM66.068 16.458c-.2-.148-.336-.367-.379-.612.251.057.475.199.634.401v-.962c-.16.201-.384.342-.634.401.057-.257.183-.494.365-.685h-.926c.186.188.313.426.365.685-.249-.057-.471-.199-.627-.401v.955c.156-.202.378-.344.627-.401-.04.246-.176.467-.379.612l.955.007ZM67.088 35.509c-.988-.263-1.951-.609-2.88-1.035.026-.216-.046-.433-.197-.591-.136-.167-.339-.266-.554-.27-.09.003-.178.02-.262.051-.141-.137-.273-.283-.394-.437-.369-.431-.658-.925-.853-1.458-.118-.321-.204-.653-.255-.992-.109.408-.489.685-.911.663 0-.058 0-.197-.044-.211-.221.236-.571.299-.86.153.08.378.184.751.313 1.115.288.771.716 1.483 1.261 2.1.17.201.355.389.554.561v.109c.038.29.219.542.481.671.237.122.524.091.729-.08.492.254 1.01.455 1.546.598.578.171 1.176.267 1.779.284.554-.046 1.086-.234 1.546-.547.206-.132.401-.281.583-.445.021-.018.041-.037.058-.058-.546.028-1.094-.036-1.619-.19m-3.192-1.311-.095-.073c-.124-.127-.327-.129-.454-.006l-.006.006c-.073.065-.142.136-.204.211l-.095.109.066.051c.175.139.204.299.153.386-.021.036-.055.062-.095.073-.121.015-.244-.016-.343-.087l-.066-.036-.044.066c.004.017.004.034 0 .051l-.051.073c-.06.095-.098.202-.109.313-.004.024-.004.049 0 .073.034.08.096.145.175.182h.044l.277.168c-.147.083-.327.083-.474 0-.207-.103-.353-.297-.394-.525.023-.262.113-.513.262-.729v-.044c-.046-.078-.087-.158-.124-.241l.27.051h.08c.204-.253.49-.426.809-.488.169.005.326.086.43.219.084.091.14.205.16.328l-.153-.109m.564 1.655c-.201-.04-.332-.236-.291-.438.03-.147.144-.262.291-.291.201.04.332.236.291.438-.03.147-.144.262-.291.291m1.641.51c-.189 0-.343-.153-.343-.343s.153-.343.343-.343.343.153.343.343-.153.343-.343.343M66.549 38.082c-.058-.012-.117-.012-.175 0v-1.021c-.517-.02-1.03-.095-1.531-.226v1.276c-.06-.011-.122-.011-.182 0-.33 0-.598.268-.598.598.017.252.123.49.299.671.066-.16.131-.292.219-.292s.102.904.634.926c-.011.048-.011.098 0 .146 0 .23.186.416.416.416.225.004.412-.175.416-.401v-.015c.011-.048.011-.098 0-.146.532 0 .445-.926.627-.926s.153.124.233.292c.171-.183.274-.42.292-.671 0-.327-.263-.594-.591-.598m-.949 2.282c-.129 0-.233-.104-.233-.233.004-.127.106-.23.233-.233.129 0 .233.104.233.233s-.104.233-.233.233m1.189-1.334c-.041-.097-.129-.166-.233-.182-.357 0-.219.94-.642.94-.14.016-.267-.084-.283-.224-.001-.01-.002-.021-.002-.031 0-.131.087-.168.087-.277s-.08-.139-.175-.139-.175.036-.175.139.095.146.095.277c0 .141-.113.256-.253.257-.01 0-.021 0-.031-.002-.43 0-.284-.94-.642-.94-.105.014-.194.084-.233.182-.067-.11-.107-.235-.117-.365 0-.23.186-.416.416-.416.474 0 .365.649.591.649.084.012.161-.046.173-.13.001-.008.002-.016.002-.023 0-.19-.328-.365-.328-.627s.241-.488.503-.729c.27.211.51.437.51.729s-.335.437-.335.627c0 .085.067.154.152.155.008 0 .016 0 .023-.002.226 0 .117-.649.598-.649.225 0 .408.183.408.408v.007c-.01.128-.047.252-.109.365"/><path d="M78.841 39.344c-.021-.056-.08-.088-.139-.073-1.225.357-2.741-.656-4.207-1.633-1.232-.824-2.399-1.597-3.405-1.597-.339-.007-.675.07-.977.226-.355.204-.63.523-.78.904-.133.321-.296.629-.488.919-.169.208-.27.462-.292.729.008.209.1.406.255.547.19.178.407.325.642.437l.19.095c.241.117.386.197.416.335-.583.24-1.192.411-1.815.51-1.731.282-3.496.282-5.227 0-.625-.1-1.237-.271-1.823-.51 0-.204.175-.284.437-.416l.19-.095c.224-.106.434-.238.627-.394.159-.122.253-.31.255-.51-.023-.267-.124-.52-.292-.729-.192-.29-.356-.597-.488-.919-.148-.38-.424-.698-.78-.897-.301-.159-.637-.239-.977-.233-.999 0-2.187.773-3.405 1.597-1.458.984-2.982 1.99-4.207 1.633-.058-.015-.118.017-.139.073-.02.054.005.115.058.139.366.181.709.407 1.021.671.357.357.82.59 1.32.663.513-.026 1.013-.173 1.458-.43.503-.288.99-.605 1.458-.948.97-.656 1.968-1.341 2.916-1.414l-.284.27c-.293.209-.469.544-.474.904.016.33.113.651.284.933.044.102.102.211.16.335.089.222.16.451.211.685 0 .109.058.233.095.386.113.453.435.824.868.999 1.316.497 2.723.708 4.127.62 1.406.089 2.815-.123 4.134-.62.432-.175.755-.546.868-.999 0-.153.066-.277.095-.386.052-.234.122-.463.211-.685.08-.168.153-.306.219-.43.157-.239.248-.516.262-.802-.048-.378-.269-.712-.598-.904-.095-.08-.197-.175-.299-.277.948.073 1.947.729 2.916 1.414.468.343.955.66 1.458.948.445.257.945.405 1.458.43.499-.074.96-.309 1.312-.671.315-.258.657-.48 1.021-.663.053-.023.079-.084.058-.139M71.463 29.581c-.196-.143-.356-.33-.467-.547-.146-.306-.729-1.458-.853-1.655-.067-.108-.107-.23-.117-.357.009-.118.055-.23.131-.321.044-.058.175-.19.226-.262.031-.052.068-.101.109-.146-.205-.357-.45-.69-.729-.992-.348-.395-.748-.74-1.188-1.028.273-.144.451-.421.467-.729 0-.2-.087-.39-.241-.518.214-.789.57-1.533 1.05-2.194l-.787-.328c.168.261.231.577.175.882-.216-.134-.372-.345-.437-.591-.064.295-.162.581-.292.853.193-.118.43-.14.642-.058-.235.298-.625.427-.992.328-.277-.066-.554-.219-.547-.43 0-.149.12-.27.269-.27h.015c.168 0 .175.277.124.394.226-.124.459-.787.109-.882s-.532.306-.627.598c-.051-.357-.197-.729-.474-.671s-.241.693-.117.86c0-.233.153-.357.255-.35s.226.073.204.284-.328.35-.671.35c-.466.069-.9-.253-.968-.719 0-.003 0-.006-.001-.01.286.045.545.192.729.416-.044-.353-.044-.711 0-1.064-.18.234-.45.382-.744.408.095-.304.297-.563.569-.729h-1.458c.273.165.475.424.569.729-.27-.048-.513-.196-.678-.416.044.353.044.711 0 1.064.175-.212.417-.358.685-.416-.063.467-.493.794-.96.73-.003 0-.006 0-.01-.001-.343 0-.649-.131-.671-.35s.109-.277.204-.284.233.117.255.35c.124-.168.241-.838-.117-.86s-.43.313-.481.671c-.087-.292-.343-.671-.62-.598s-.117.729.109.882c-.058-.117-.044-.372.124-.394.149-.004.273.113.277.262v.007c0 .211-.262.365-.54.43-.335.07-.681-.047-.904-.306.213-.084.454-.062.649.058-.139-.263-.244-.542-.313-.831-.069.25-.23.464-.452.598-.059-.308.004-.627.175-.889l-.787.292c.481.66.839 1.401 1.057 2.187-.152.125-.238.313-.233.51.016.308.193.585.467.729-.441.287-.84.633-1.188 1.028-.543.62-.968 1.334-1.254 2.107.109.117.583.627.729.729.174.19.283.43.313.685-.005.27.094.531.277.729.087.162.139.341.153.525h3.908v4.258c-.175 0-.341.077-.452.211.452.182.882.343 1.312.481.015-.228.099-.447.241-.627l-.875-.073v-4.243h3.813c-.012.574-.116 1.143-.306 1.684-.201.532-.492 1.025-.86 1.458-.346.428-.778.778-1.269 1.028-.08 0-.08.095-.153.124-.081.103-.145.219-.19.343-.047.124-.076.254-.087.386l.445.131c1.341.335 1.677.233 1.75.175.306-.238.589-.504.846-.795.534-.622.949-1.336 1.225-2.107.308-.825.463-1.7.459-2.581v-.372m-5.926.295h-3.915c.005-.596.109-1.187.306-1.75.201-.532.492-1.025.86-1.458.348-.415.778-.755 1.261-.999.454-.225.952-.347 1.458-.357l.029 4.564Zm.065-6.503c-.959-.031-1.905.222-2.719.729-.306-.175-.43-.357-.43-.561 0-.729 2.085-.802 3.15-.802 1.057 0 3.15.066 3.15.802 0 .204-.131.386-.43.561-.815-.505-1.761-.759-2.719-.729m.159 6.503v-4.593c.482.021.953.143 1.385.357.485.242.914.582 1.261.999.369.433.66.926.86 1.458.197.563.302 1.154.313 1.75l-3.82.029Z"/><path d="M68.977 29.093c.037.015.055.058.039.095-.014.033-.049.051-.083.043-.082-.694-.333-1.357-.729-1.932.088-.028.15-.105.16-.197-.097-.018-.196.025-.248.109l-.08-.109c-.234-.302-.515-.565-.831-.78-.28-.19-.591-.33-.919-.416.018-.04.066-.058.106-.039.017.008.031.022.039.039 0-.124-.095-.182-.153-.16-.04.016-.068.052-.073.095-.042-.05-.102-.082-.168-.087-.008.065.011.131.051.182-.041-.002-.079.017-.102.051-.02.074.023.15.097.17.011.003.023.005.034.005-.032-.024-.039-.07-.015-.102.014-.018.035-.029.058-.029v1.458c-.036-.063-.116-.084-.179-.048-.063.036-.084.116-.048.179s.116.084.179.048c.02-.012.037-.028.048-.048v1.619c-.04.003-.075-.028-.078-.068-.002-.03.014-.058.041-.071-.124 0-.175.109-.146.168s.051.066.124.058c-.042.046-.066.106-.066.168.061.002.121-.019.168-.058-.011.048.013.097.058.117.07.02.142-.019.163-.089.005-.016.006-.033.005-.05-.017.036-.061.052-.097.034-.027-.013-.043-.041-.041-.071h1.123c-.023.088.002.182.066.248.068-.063.093-.16.066-.248H68.8c.009.039-.016.078-.055.087-.035.008-.07-.011-.083-.043 0 .117.117.168.168.139.046-.023.07-.074.058-.124.049.04.112.061.175.058-.001-.063-.027-.124-.073-.168.073 0 .109 0 .124-.066s0-.168-.146-.16m-1.063-1.983c-.033.026-.05.068-.044.109.017.049.065.079.117.073-.05.039-.081.097-.087.16.062.01.125-.006.175-.044 0 .073 0 .109.044.131.03.022.072.022.102 0 .293.474.486 1.002.569 1.553-.04-.03-.089-.046-.139-.044 0 .069.029.135.08.182h-.962c.012-.054-.016-.108-.066-.131 0 0-.08 0-.131.044.033-.04.028-.1-.012-.133s-.1-.028-.133.012c-.029.035-.029.086 0 .121-.029-.042-.083-.059-.131-.044-.045.027-.069.08-.058.131h-.78c.036-.048.057-.107.058-.168-.062 0-.122.023-.168.066v-1.32c.066 0 .124 0 .131-.066s0-.08-.044-.131c.04.039.105.039.144-.001.039-.04.039-.105-.001-.144-.04-.039-.103-.039-.143 0 .042-.029.059-.083.044-.131-.023-.049-.079-.074-.131-.058v-1.115c.041.033.093.051.146.051.003-.055-.012-.109-.044-.153.259.082.505.203.729.357.276.193.522.427.729.693"/><path d="M68.306 28.685c.046-.02.082-.056.102-.102-.032.018-.07.018-.102 0 0 0 .08 0 0-.066s-.08-.073-.124 0c-.143.041-.292-.043-.333-.186-.005-.018-.008-.036-.01-.055 0 .044.058.066.102.087h.036c.028.01.059.01.087 0 .063-.006.114-.054.124-.117 0-.124-.109-.182-.241-.292l-.044-.124c-.044-.087 0-.168-.131-.328.005-.048.005-.097 0-.146-.082.159-.053.353.073.481.124.139.394.27.386.386-.009.035-.037.061-.073.066h-.117c-.035-.019-.067-.044-.095-.073-.102-.106-.195-.221-.277-.343-.09-.133-.11-.302-.051-.452.087-.117-.051-.365-.139-.43.015-.042.015-.089 0-.131h-.073c-.022 0 0-.058-.066-.066s-.051 0-.058-.058-.044.058-.073.058h-.08c-.027.023-.06.035-.095.036q-.051 0-.051.066c0 .066 0 .058.044.073v.044-.051c.023-.028.064-.033.092-.01.004.003.007.006.01.01v.051h-.109v.058c0 .022 0 .044.095 0s.168 0 .168 0-.153.131-.19.292c-.037-.026-.069-.058-.095-.095-.031-.05-.067-.097-.109-.139l-.117-.095c-.058 0-.058-.058-.058-.117v-.131c.002-.015.002-.029 0-.044 0 0-.051-.051-.073-.044.008.014.008.03 0 .044m.003.047s0-.087-.058-.087c0-.036-.044-.066-.08 0v.036c0 .036 0 .051.058.051h-.095v.073-.036h.036v.087c-.015.024-.046.032-.07.017-.007-.004-.013-.01-.017-.017-.051.087 0 .146.109.117s0 .087 0 .087c-.011.015-.011.036 0 .051v.058c.054.127.149.232.27.299-.075.047-.139.109-.19.182-.044.044-.109.087-.153.066l-.044-.051h-.051c-.027-.017-.061-.017-.087 0h.16c-.014.008-.03.008-.044 0 0 0-.058-.044-.087 0s-.066.073 0 .102c-.007-.016-.007-.035 0-.051 0 .036.051.058.109 0 0 .036-.044.095 0 .102.013.038.055.058.093.044h.002c-.026-.009-.045-.031-.051-.058v-.087s0 .051.08 0c.006-.016.006-.035 0-.051.047-.019.099-.019.146 0 0 0 0-.073.087-.087.033-.021.076-.021.109 0 .009-.041.029-.079.058-.109 0 .241.313.233.386.379-.081-.042-.172-.06-.262-.051-.08 0-.211.087-.233.175.005.102.056.196.139.255-.07-.004-.141-.004-.211 0-.073 0-.08-.117-.168-.087s-.08.036-.073.073c.016-.009.035-.009.051 0s-.109 0-.095.073c0 0 0 .051.066 0v.044c.005.032.034.054.066.049.01-.002.02-.006.029-.013h-.044.051c.016.018.044.02.062.004l.004-.004h.036s0-.058.087 0h.153c.029 0 0-.036 0-.073s-.051-.066-.066-.139.146-.182.241-.168c.043.151.153.275.299.335.109 0 .153-.08.19-.066s0 0 0 .036v.124c0 .022-.073 0-.109 0h-.044c-.038.006-.067.035-.073.073.022-.005.044-.005.066 0 .015.024.046.032.07.017.007-.004.013-.01.017-.017s-.073.066 0 .08c-.008.023.004.048.027.056.006.002.011.003.017.002-.011-.015-.011-.036 0-.051s0-.058.051-.073v.08s.044.044.087 0c0-.066-.044-.073-.044-.102s.073 0 .073-.08c.036 0 .073-.044.073-.073-.029.007-.059.007-.087 0l-1.123-1.597ZM65.091 30.835h-.066v-.058c.029-.191-.103-.369-.294-.398-.026-.004-.052-.005-.078-.003-.402.138-.817.233-1.239.284-.258-.019-.508-.099-.729-.233l-.08.175c0-.081-.065-.146-.146-.146s-.146.065-.146.146.065.146.146.146c.044-.001.084-.023.109-.058l-.073.182h.08c-.03 1.103.69 2.086 1.75 2.391.175-.044.35 0 .35.175s-.058.168-.16.168-.117-.044-.117-.087.139 0 .153-.087 0-.102-.109-.102c-.109-.004-.2.081-.204.189-.004.137.103.251.24.255h.022c.188.018.356-.119.374-.308.003-.029.002-.057-.002-.086.058 0 .131 0 .146-.066v-.182h-.066l.036-2.092h.044c.066.016.134-.024.15-.091.002-.006.003-.012.003-.019-.004-.067-.057-.12-.124-.124m-2.128.161 1.458 2.049c-.904-.26-1.508-1.11-1.458-2.049m1.458 1.851-1.298-1.866h.117c.068.007.136.007.204 0l1.086 1.546c0 .146-.044.277-.066.379m.095-.591-.919-1.32c.102-.021.202-.051.299-.087l.685.992-.066.416m.227-1.459h-.058c-.063-.012-.125.029-.137.092 0 .003-.001.007-.002.01-.008.068.041.13.108.138h.015c.004.017.004.034 0 .051 0 .117-.044.313-.08.532l-.583-.831c.194-.099.4-.175.612-.226.095 0 .109.044.095.233M64.843 26.665c.277 0 .416-.087.416-.175 0-.313-.766-.117-.766-.306.005-.036.027-.068.058-.087.386 0 .394-.299.663-.35-.328-.051-.372.211-.518.226.059-.032.095-.094.095-.16-.066.087-.211.095-.299.197-.007.019-.007.039 0 .058-.051 0-.087.066-.087.109 0 .292.78.095.78.306 0 .073-.131.124-.35.124s-.27-.117-.569-.036c0-.051.095-.146.058-.19s.051 0 .051-.058c-.019-.004-.039-.004-.058 0m.001-.037c.003-.014.003-.029 0-.044l-.073-.044c-.021-.008-.044-.008-.066 0h-.08c-.019-.007-.04-.007-.058 0-.007.026-.007.054 0 .08 0 0-.058.073-.08.066 0 0 0 .095-.058.095-.018.06-.033.121-.044.182-.016-.021-.036-.038-.058-.051-.044 0-.044-.051 0-.095s0-.073 0-.109-.036-.051-.058-.044m-.001.044s0-.066-.044-.073 0-.058-.066 0 0 .036.051.044h-.087v.066-.036c-.044 0-.044.066 0 .073 0 .024-.02.044-.044.044s-.044-.02-.044-.044c-.058.073 0 .131.095.095v.044s0 .051.066.095c-.054.024-.11.041-.168.051-.046-.007-.093-.007-.139 0-.044 0-.153.066-.182 0 .002-.017.002-.034 0-.051-.021-.017-.052-.017-.073 0 .014-.007.03-.007.044 0l.066.058s0-.051-.066 0-.08 0-.058.066 0 .058.095 0-.066.066 0 .087c-.008.031.011.063.042.071.005.001.011.002.016.002-.013-.02-.013-.046 0-.066v-.066s0 .058.051.058.058-.044.051-.058c.008.014.008.03 0 .044.013.023.013.05 0 .073.03-.015.054-.041.066-.073.026.01.054.01.08 0-.008.014-.008.03 0 .044v.066c0-.102.066-.066.131-.102s.08 0 .08-.066 0 0 .044 0c.029.002.057-.012.073-.036v.051c0 .007.139-.073.168-.08.146 0-.087-.139.211-.117.032-.003.063-.015.087-.036v.146c.024-.006.049-.006.073 0h-.066c-.073.044-.073-.109-.146-.08-.034.006-.06.032-.066.066.017-.004.034-.004.051 0s-.095 0-.073.058 0 .044.058 0 .036.058.073 0c.017.015.042.015.058 0 .051 0 0-.058.051-.066h.102c.014-.041 0-.085-.036-.109v-.08c.051.009.102.009.153 0 .102 0 0 0 .051-.044.039-.021.085-.021.124 0v.087c0 .022-.051 0-.087 0s-.058 0-.058.058c.017-.006.034-.006.051 0 .009.018.031.026.049.017.007-.004.013-.01.017-.017s-.066.051 0 .073c.001.023.015.043.036.051v-.051s0-.044.036-.058v.073s0 .036.066 0v-.08c0-.022.058 0 .058-.066.005-.012.005-.025 0-.036h.044c.007 0 0 0 0-.058.012-.018.012-.041 0-.058h-.109c-.044 0-.109 0-.241-.044m-.655-.367h.095-.058c-.058 0 0 0 0-.066m-.051 0h-.058c-.015 0 0 0 0-.066.024.019.051.033.08.044m-.088.19.073.036h-.044c-.044 0 0 0 0 .036v.044c0 .044 0 .036-.051 0-.015-.017-.015-.042 0-.058M65.229 27.729c0-.087-.095-.139-.372-.139s-.882.102-.882-.051.117-.073.262-.066c.019.007.039.007.058 0 .35.102.729-.087.977 0-.248-.19-.459 0-.729-.051.16 0 .211-.044.219-.087-.117.08-.35 0-.496.051-.197 0-.35 0-.35.124 0 .27.729.109.962.109s.277 0 .277.066-.226.08-.357.08c-.385-.039-.774-.039-1.159 0 0-.058.095-.139.058-.175.033-.009.056-.039.058-.073-.022-.006-.044-.006-.066 0v-.051c.002-.015.002-.029 0-.044-.023-.022-.051-.039-.08-.051h-.241c-.015.032-.015.07 0 .102 0 0-.066.087-.102.073 0 0-.044.102-.073.109l.044.036v.109h-.058l-.124-.102c-.051 0-.051-.058-.044-.109s0-.095 0-.139v-.036s-.051-.058-.073-.051 0 0 0 .051c-.011.015-.011.036 0 .051s0-.08-.051-.087c0-.036 0-.058-.08 0s0 0 .036 0 0 .051.058.051h-.095c-.02.013-.026.041-.012.061.003.005.007.009.012.012v-.036s-.036.08 0 .087c0 .028-.023.051-.051.051s-.051-.023-.051-.051c-.058.087 0 .153.109.109v.051s.051.058.109.095.087.073.117.044.044.109 0 .109c-.063-.007-.127-.007-.19 0-.058 0-.182.073-.219 0s0-.036 0-.058 0-.036-.044-.036c-.027-.017-.061-.017-.087 0 .016-.009.035-.009.051 0s0 .044.073.073m-.04.001s0-.058-.073 0-.087.044-.066.08 0 0 .044 0c0 .044 0 .073.109 0 0 0-.073.073 0 .095 0 .051.044.087.066.08-.01-.021-.01-.045 0-.066.044 0 0-.066.044-.08-.004.032.019.061.051.065h.008c.037-.004.066-.035.066-.073.011.015.011.036 0 .051.018.024.018.057 0 .08.04-.01.07-.041.08-.08.031.006.064.006.095 0-.008.014-.008.03 0 .044v.073c0-.117.073-.073.153-.117.003.014.003.029 0 .044.087 0 .219-.109.233-.16.026-.006.054-.006.08 0 .241 0 .073-.219.459-.153 0 0 .073 0 .095-.036s0 .153 0 .16l.095.036h-.073c-.08.051-.087-.124-.168-.087s-.08.044-.073.08c.019-.005.039-.005.058 0h.044s-.102 0-.087.073 0 .058.073.044c.005.032.034.054.066.049.01-.002.02-.006.029-.013h-.051.321c.021.017.052.017.073 0 .058 0 0-.073.051-.08h.124c.016-.049-.002-.102-.044-.131v-.095c.052.026.109.041.168.044.074.01.15-.008.211-.051.049-.021.104-.021.153 0v.102c0 .029-.066 0-.102 0-.035.009-.061.037-.066.073h.058c.01.022.035.032.058.023.01-.004.018-.012.023-.023s-.066.058 0 .073c-.015.017-.015.042 0 .058v-.051s0-.051.044-.073v.08c.013.02.04.026.061.012.005-.003.009-.007.012-.012 0-.066-.036-.066-.036-.095s.066 0 .066-.073c.008-.014.008-.03 0-.044h.051c.051 0 0-.036-.044-.066v-.073c0-.073-.066.051-.073 0s0 0-.051 0c-.099.009-.199.009-.299 0 .175 0 .445-.051.445-.146m-1.708-.232h.109-.066c-.066 0-.044 0-.044-.066m-.065.001s-.044.044-.066 0 0 0 0-.073c.027.021.056.038.087.051m-.101.219v-.051c0-.051 0 0 0 0l.08.044h-.051c-.008.014-.008.03 0 .044v.044c0 .044 0 .051-.058 0-.016-.019-.016-.047 0-.066M65.105 28.925c0-.08-.087-.131-.35-.131s-1.057.095-1.057-.051.27-.058.467-.051c.019.007.039.007.058 0 .335.095.685-.131.926-.051-.19-.168-.437 0-.685 0 .146 0 .299 0 .306-.073-.109.073-.437-.051-.576.036-.248 0-.547 0-.547.117 0 .262.911.109 1.13.109s.262 0 .262.058-.219.08-.335.08c-.463-.052-.93-.052-1.393 0 0-.058.102-.146.058-.19.03-.01.052-.035.058-.066-.022-.005-.044-.005-.066 0v-.044c.002-.015.002-.029 0-.044l-.08-.051h-.168c-.019-.004-.039-.004-.058 0-.016.03-.016.065 0 .095 0 0-.066.08-.095.073 0 0-.036.102-.066.109-.004.027-.004.054 0 .08h-.095s-.066-.073-.139-.109-.051-.058-.051-.109c.004-.044.004-.088 0-.131s-.051-.051-.073-.044c.008.014.008.03 0 .044v.051c0-.036 0-.08-.058-.087s-.036-.058-.073 0c0 .036 0 .051.058.051h-.08v.073c0 .029 0 0 0 0-.044.036 0 .073 0 .08 0 .073-.095.058-.095 0-.051.087.044.146.117.109-.004.024.011.047.035.051h.001c.051.059.11.11.175.153.018.01.04.01.058 0v.109c-.07-.007-.141-.007-.211 0-.051 0-.168.073-.204 0s0 0 0-.058c-.014-.003-.029-.003-.044 0-.027-.017-.061-.017-.087 0 .016-.007.035-.007.051 0s0 .044.073.073h-.044s0-.058-.066-.036-.087 0-.066.08 0 0 .044 0c0 0 0 .073.102 0 0 0-.073.066 0 .095s0 .073.066.073c-.008-.021-.008-.044 0-.066.044 0 0-.058.044-.073 0 0 0 .058.051.058.035-.003.062-.031.066-.066m.003.046c.015.022.015.051 0 .073.039-.003.07-.034.073-.073.028.011.059.011.087 0V29.414c0-.117.146-.058.219-.102.003.014.003.029 0 .044.036-.002.07-.017.095-.044l.117-.051c.003-.012.003-.024 0-.036.073 0 .066-.058.095-.051.423.058.182-.182.678-.139h.058c.058 0 0 .131 0 .139.029-.005.059-.005.087 0h-.073c-.08.051-.08-.117-.16-.087 0 0-.08 0-.073.073.017-.003.034-.003.051 0s-.102 0-.08.066 0 .051.066 0c.015.024.046.032.07.017.007-.004.013-.01.017-.017h-.044c.02.013.046.013.066 0 .058 0 0-.066.051-.08h.153c.025-.04.025-.091 0-.131v-.087c.052.026.109.041.168.044.07.006.139-.012.197-.051.047-.017.099-.017.146 0v.095c0 .029-.066 0-.095 0-.036 0-.066.029-.066.066.017-.005.034-.005.051 0 .013.02.04.026.061.012.005-.003.009-.007.012-.012s-.073.066 0 .08c-.002.025.013.049.036.058v-.051s0-.051.044-.066v.073h.073-.036v-.095c0-.029.066 0 .066-.073.007-.014.007-.03 0-.044h.044c.007 0 0-.036 0-.058.013-.02.013-.046 0-.066 0 0-.066.044-.073 0s0 0-.051 0h-.284c.153 0 .423-.044.423-.139m-1.905-.213h.102-.066c-.066 0 0-.044 0-.066m-.058-.036s-.044.044-.066 0 0 0 0-.073c.025.023.055.041.087.051m-.094.211v-.044c0-.044 0 0 0 0h-.036l.087.044h-.044m.001.044v.044q0 .044-.058 0c-.058-.044 0-.051 0-.066M68.802 30.923c.015-.022.015-.051 0-.073 0 0-.073.051-.073 0s0 0-.044 0c-.102.009-.204.009-.306 0 .146 0 .423 0 .423-.131s-.087-.131-.35-.131-1.057.095-1.057-.051.27-.051.467-.044h.058c.335.095.729-.16.919-.102-.262-.087-.43.066-.685 0 .153 0 .306 0 .313-.066-.109.073-.437-.051-.576 0-.248 0-.547 0-.547.109 0 .262.911.109 1.13.109s.262 0 .262.066-.219.08-.335.08c-.463-.052-.93-.052-1.393 0 0-.058.102-.146.058-.19s.058 0 .058-.066h-.066v-.087c-.019-.024-.044-.042-.073-.051-.026-.007-.054-.007-.08 0h-.087c-.019-.007-.04-.007-.058 0-.016.03-.016.065 0 .095 0 0-.066.073-.095.066 0 0-.036.102-.066.102h.044c-.003.027-.003.054 0 .08h-.131s-.073-.066-.139-.109-.051-.051-.051-.109v-.124c.002-.015.002-.029 0-.044-.013-.025-.038-.042-.066-.044.005.014.005.03 0 .044v.044s0-.08-.051-.08-.036-.058-.073 0c.002.012.002.024 0 .036 0 0 0 .044.058.044h-.08v.066c0 .022 0 0 0 0-.044 0 0 .08 0 .087 0 0-.095.058-.095 0-.028.03-.027.078.004.106.03.028.078.027.106-.004s0 .044.036.044c0 0 .058.102.168.16l.066-.036c-.008.014-.008.03 0 .044 0 .051.051.102.044.102-.05-.011-.103-.011-.153 0-.044 0-.168.066-.204 0 .002-.022.002-.044 0-.066h-.08.044s0 .044.073.066m-.044-.001s0-.051-.073 0-.08 0-.058.073 0 .066.102 0c0 0-.073.073 0 .095 0 .044.044.08.066.073-.01-.021-.01-.045 0-.066s0-.058.044-.073 0 .066.058.058c.032 0 .059-.026.059-.058v-.008c.009.016.009.035 0 .051.016.024.016.056 0 .08.038-.012.068-.042.08-.08h.095V31.126c0-.117.073-.073.146-.117s.131-.044.131-.087 0 0 .073 0 .066-.051.095-.051c.423.058.182-.182.678-.131 0 0 .036 0 .058-.044s0 .146 0 .153c.029-.004.058-.004.087 0h-.073c-.08.051-.08-.117-.16-.087-.036 0-.08.044-.073.073.017-.005.034-.005.051 0s-.102 0-.08.073 0 .051.058 0 .044.066.087 0-.044 0-.044 0h.423s0 .036.066 0 0-.066.051-.073h.117c.015-.046-.003-.097-.044-.124v-.087c.053.012.108.012.16 0 .076.007.152-.008.219-.044.045-.025.1-.025.146 0v.095c0 .029-.058 0-.095 0s-.073 0-.073.066c.019-.004.039-.004.058 0 .013.02.04.026.061.012.005-.003.009-.007.012-.012s-.073.058-.036.073v.051c-.006-.016-.006-.035 0-.051s0-.051.051-.066v.08s.036.044.073 0v-.087c0-.022.066 0 .066-.08v-.036h.051c.015 0 0-.036 0-.066m-1.875-.482h.102-.066c-.066 0-.044-.044 0-.066m-.065-.036s0 .044-.058 0 0 0 0-.066c.028.018.057.032.087.044m-.094.212v-.044c0-.044 0 0 0 0h-.036c-.036 0 0 0 0 0h.08-.051c-.051 0 0 0 0 0v.044q0 .044-.058 0c-.016-.019-.016-.047 0-.066m-.067-.117ZM67.635 31.579c.012.021.034.035.058.036.321.095.685-.146.875-.087-.248-.087-.408.066-.649 0 .139 0 .292 0 .299-.073-.109.073-.423-.044-.554 0-.175 0-.321 0-.321.109 0 .248.663.102.868.102s.182 0 .182.066-.233.073-.35.073c-.349-.035-.701-.035-1.05 0 0-.051.087-.124.051-.16.028-.011.048-.036.051-.066-.019-.004-.039-.004-.058 0v-.044c0-.044 0 0 0 0-.017-.022-.04-.04-.066-.051-.026-.007-.054-.007-.08 0h-.087c-.016-.007-.035-.007-.051 0-.011.028-.011.059 0 .087 0 0-.058.08-.08.073 0 .044 0 .095-.058.095-.003.031-.003.063 0 .095h-.044c-.04.017-.084.017-.124 0-.051 0-.051-.051-.051-.102v-.16c0-.044-.051-.044-.073 0v.044s0-.073-.051-.073 0-.058-.073 0 0 .044.058.044h-.08V31.733c0 .007 0 0 0 0s-.095.051-.095 0c-.051.08.044.139.109.095v.044h.16v.117c-.046-.007-.093-.007-.139 0-.051 0-.16.066-.197 0 .003-.019.003-.039 0-.058-.021-.017-.052-.017-.073 0 .014-.008.03-.008.044 0l.066.058c.066.058 0 0 0 0m-.043-.002s0-.051-.058 0-.08 0-.058.073c.014-.004.03-.004.044 0 0 .044 0 .073.102 0 0 0-.066.066 0 .087-.004.036.022.069.058.073-.006-.021-.006-.044 0-.066s0-.058.044-.073 0 .058.051.051.066 0 .058-.058c.007.016.007.035 0 .051.016.024.016.056 0 .08.036-.009.064-.037.073-.073.028.011.059.011.087 0v.11c0-.109.095-.08.16-.124.073.044.153-.058.175-.109s.066-.051.095-.044c.211 0 .044-.182.394-.124 0 0 .066 0 .087-.036s0 .139 0 .146c.027-.004.054-.004.08 0h-.073c-.073.051-.073-.109-.153-.08 0 0-.073.044-.066.073.017-.005.034-.005.051 0h.044s-.102 0-.08.066c0 0 0 .051.058 0 .015.024.046.032.07.017.007-.004.013-.01.017-.017h-.044.044c.017.015.042.015.058 0 .051 0 0-.066.051-.073.038.012.079.012.117 0 .015-.046-.003-.097-.044-.124v-.08c.053.009.107.009.16 0 .076.007.153-.011.219-.051.044-.018.094-.018.139 0v.095c0 .029-.058 0-.095 0s-.073 0-.073.066h.058c0 .044 0 .051.066 0 0 0-.08.051-.044.066v.051c-.005-.017-.005-.034 0-.051s0-.058.058-.073-.036.066 0 .073 0 .044.066 0v-.087c0-.029.058 0 .073-.066s0 0 0-.044c.016.008.035.008.051 0-.051 0 0 0 0-.058.012-.02.012-.045 0-.066 0 0-.073.044-.066 0s0 0-.044 0c-.109.009-.219.009-.328 0 .146 0 .43 0 .43-.124s0-.124-.255-.124-.809.087-.809-.051.109-.058.241-.051m-.8-.002h-.066c-.022 0 0 0 0-.066l.087.051m.044.147h-.044c-.044 0 0 0 0 0-.017.015-.042.015-.058 0-.015-.017-.015-.042 0-.058v-.044c0-.044 0 0 0 0h.08m.044-.059s-.036 0 0-.058h.095-.066"/><path d="M67.373 32.724c.013.022.034.038.058.044.321.087.685-.146.875-.095-.248-.087-.408.066-.649 0 .139 0 .292 0 .299-.066-.109.073-.423-.051-.554 0-.095 0-.182.08-.182.153 0 .204.817 0 .817.109s-.16.109-.372.109c-.263-.048-.532-.048-.795 0 0-.058.095-.153.066-.19.026-.007.045-.031.044-.058h-.051v-.044c-.019-.019-.041-.034-.066-.044h-.117c-.016-.007-.035-.007-.051 0-.014.027-.014.06 0 .087 0 0-.058.073-.087.058 0 .044-.036.087-.058.087-.011.068-.011.137 0 .204-.051-.051-.124-.175-.175-.204s-.051-.044-.051-.095v-.153c-.02-.012-.045-.012-.066 0m-.001.047s0-.073-.051-.073 0-.058-.073 0 0 .044.051.044h-.08v.058c0 .058 0 0 0 0h.058v.08c0 .066-.095.051-.087 0-.051.08 0 .139.102.102v.044s0 .102.095.16c.007.052.055.088.107.081h.002s.044.08.036.08c-.053-.007-.107-.007-.16 0h-.102c-.025.013-.055.013-.08 0 .003-.019.003-.039 0-.058h-.073l.066.058c.066.058 0 0 0 0s0-.051-.066-.036-.08 0-.058.066c.012-.003.024-.003.036 0s0 .066.095 0c0 0-.058.058 0 .08s0 .066.058.066c-.01-.018-.01-.04 0-.058v-.066c0-.015 0 0 0 0 0 .028.023.051.051.051.036 0 .058 0 .051-.058.007.014.007.03 0 .044.017.021.017.052 0 .073.034-.012.061-.039.073-.073.026.007.054.007.08 0v.066c0-.102.066-.058.131-.102s.095 0 .095-.073c.034-.053.056-.113.066-.175.087 0 .124-.073.211-.073-.012.04-.012.084 0 .124 0 .044.058.095.08.109h-.066c-.066.044-.066-.109-.146-.08 0 0-.073 0-.066.066.014-.005.03-.005.044 0s-.087 0-.073.066 0 .044.058 0 0 .058.08 0-.044 0-.044 0h.058c.058 0 0-.058.051-.066h.08c.024-.035.024-.082 0-.117 0 0 0-.168-.08-.241.051 0 .233.036.262 0 .047.01.089.033.124.066s0 .044-.066.051c-.013-.021-.031-.038-.051-.051h-.073.051-.066c-.015.017-.015.042 0 .058h.073s-.058 0-.044.058c-.016.019-.016.047 0 .066v-.044c.051 0 0-.066 0-.08s.044.036.087 0V32.9c.018.009.04.009.058 0 0 0-.087 0-.051-.044s.066-.051.044-.08-.131-.058-.139-.124h.08c.277 0 .452-.08.452-.168s-.838 0-.838-.117.051-.073.117-.095m-.593 0 .095.036h-.058c-.058 0-.044-.036 0-.058m-.052 0h-.058c-.015 0 0 0 0-.058.028.018.057.032.087.044m-.087.189h.073-.044c-.044 0 0 0 0 0s0 .044-.051 0M54.053 18.383c.021-.111-.051-.218-.162-.239-.111-.021-.218.051-.239.162-.005.025-.005.051 0 .077.021.111.128.183.239.162.082-.016.146-.08.162-.162M53.972 17.851c0-.109-.088-.197-.197-.197s-.197.088-.197.197.088.197.197.197c.109 0 .197-.088.197-.197M54.089 17.617c.11-.004.197-.094.197-.204 0-.109-.088-.197-.197-.197s-.197.088-.197.197c0 .11.087.2.197.204M54.621 17.581c.109 0 .197-.088.197-.197v-.007c-.004-.107-.09-.193-.197-.197-.11 0-.2.087-.204.197 0 .113.091.204.204.204M56.881 17.187c.075.079.2.081.278.006l.006-.006c.077-.071.081-.191.009-.268l-.009-.009c-.079-.077-.205-.077-.284 0-.073.081-.073.204 0 .284M56.838 16.786c.079-.075.081-.2.006-.278l-.006-.006c-.078-.072-.199-.072-.277 0-.079.075-.081.2-.006.278l.006.006c.071.077.191.081.268.009l.009-.009M56.313 16.699c.092-.065.115-.192.05-.284-.065-.092-.192-.115-.284-.05-.019.014-.036.031-.05.05-.065.092-.042.22.05.284.07.049.164.049.234 0M55.861 17.034c.077-.071.081-.191.009-.268l-.009-.009c-.079-.077-.205-.077-.284 0-.073.081-.073.204 0 .284.075.079.2.081.278.006l.006-.006M54.585 16.757l.16.35.204-.241c.011.146.011.292 0 .437 0 .141.114.255.255.255s.255-.114.255-.255c0-.095-.054-.182-.139-.226-.102-.076-.195-.164-.277-.262h.343l-.08-.357-.248.211v-.372l-.35.131.233.277-.357.051ZM56.896 17.384c.067.074.105.17.109.27-.084-.043-.155-.109-.204-.19l.044.467c.036-.07.092-.129.16-.168 0 .299-.131.43-.233.452-.106.026-.212-.039-.238-.145l-.003-.015c0-.131.087-.219.211-.095 0-.277-.204-.277-.306-.16.127-.187.078-.44-.109-.567-.027-.019-.057-.034-.088-.045-.138.198-.092.47.102.612-.182-.095-.35.058-.182.27 0-.182.19-.139.226 0s-.087.284-.284.343-.379-.102-.452-.255c.13-.035.268-.005.372.08l-.131-.452c-.05.125-.151.223-.277.27.011-.135.04-.267.087-.394l-.547.226c.123.054.236.128.335.219-.122.059-.264.059-.386 0l.219.423c.044-.19.139-.299.211-.313.058.16.124.35-.146.488-.135.1-.324.081-.437-.044-.073-.124 0-.262.16-.16 0-.262-.255-.255-.321-.058 0-.277-.073-.437-.357-.51-.077.212.032.446.243.524.018.007.037.012.056.016-.153 0-.321.139-.109.328 0-.175.139-.197.219-.08.059.091.033.213-.058.272-.003.002-.005.003-.008.005-.087.058-.262.051-.481-.153.076-.025.158-.025.233 0l-.292-.365c.021.091.021.186 0 .277-.066-.076-.106-.17-.117-.27l-.226.197c.289.192.537.44.729.729.39-.232.797-.434 1.218-.605.418-.172.85-.311 1.29-.416-.071-.349-.071-.708 0-1.057l-.233.051ZM61.278 30.077c.073-.211-.313-.459-.365-.766.007-.368-.12-.725-.357-1.006-.343-.401-1.538-1.677-1.896-2.085.19-.041.387.017.525.153.131.117.379.365.62.598.293-.751.723-1.44 1.269-2.034l.219-.241c-.252.049-.497.129-.729.241 0-.35 0-.642-.226-.86.087-.488 0-1.086-1.086-1.815.561.139.889.649 1.32.255-.386 0-.394-.853-1.786-1.553.532 0 .948.853 1.567.365-.583-.073-.78-1.101-1.823-1.458.365.044.729.219 1.05-.204-.365.087-.576-.248-.97-.277.138-.347.122-.737-.044-1.072-.264.016-.518.11-.729.27 0-.248-.292-.262-.525-.248 0 .109.066.262-.051.292-.44.093-.872.222-1.29.386-.417.175-.817.387-1.196.634-.095.073-.175-.087-.233-.16-.175.146-.335.328-.219.518-.292.019-.573.12-.809.292.042.363.293.668.642.78-.649.642-.058 1.239-.627 1.801.795 0 .656-1.086 1.064-1.239-.044.78-.481.919-.481 1.764 0 .452.27.94 0 1.239.671-.182.488-1.662.911-2.114.051.244.031.497-.058.729-.233.693 0 1.633-.335 1.939.678-.066.729-1.159 1.32-1.56-.481.984-.977 3.084-1.699 4.134-1.159 1.575-1.845 3.492-2.916 3.492-.434.024-.806-.309-.829-.743-.003-.049 0-.098.006-.147 0-1.786 3.062-3.011 3.062-4.914.02-.628-.472-1.153-1.1-1.173h-.023c-.347.023-.677.159-.94.386-.113-.049-.234-.077-.357-.08-1.086 0-.795 1.954-1.742 1.932.379.211 1.021-.197 1.4-.729-.153 1.261-1.976.926-1.837 2.442.255-1.188 3.15-1.013 3.15-2.814-.01-.197-.1-.381-.248-.51.181-.121.394-.187.612-.19.378.009.678.323.669.701 0 .024-.002.048-.005.071 0 1.589-3.04 2.916-3.04 4.892-.002.317.103.626.299.875-.22.1-.48.03-.62-.168 0 .503.729.824 1.159.569.101.036.206.059.313.066-.155.319-.494.505-.846.467.729.591 2.049-.182 1.976-.846.534-.558 1.004-1.174 1.4-1.837-.029.131-.051.255-.066.372-.499.772-.827 1.642-.962 2.552-.095.882-.54 1.67-1.152 1.67-.139 0-.357-.182-.459-.095s0 .343 0 .503-.474.496-.474 1.269c0 .343.197.729.124.992.289-.206.489-.513.561-.86.211 1.021-.43.977 0 1.874.018-.205.198-.356.403-.338.048.004.094.017.137.039.182.124.095.211-.036.35s-.262.809.357.729c-.117-.073-.124-.255.182-.313.423-.087.547.109.992.109.284 0 .357-.365.583-.365s.219.168.139.292c.357-.095.423-.284.423-.488s-.16-.321 0-.401.54 0 .372.343c.219 0 .328-.19.328-.452s-.299-.408-.576-.365c-.044-.16-.284-.248-.51-.248-.496 0-.416.394-.729.394-.547 0-1.079-.729-1.079-1.91 0-.649.729-.809 1.181-1.021.769-.336 1.419-.895 1.866-1.604.355-.707.483-1.507.365-2.289.506.268.808.807.773 1.378.032.39-.21.75-.583.868-.182.087-.248.051-.262.16-.019.111.042.22.146.262.248.124.197.365.27.62.121.385.361.722.685.962.03-.242.03-.487 0-.729.532.255.102 1.327 1.137 1.327-.19-.109-.146-.394 0-.43s.248.073.452.343.146.262.634.262.262-.168.525-.168.233.292.095.51c.307-.045.519-.33.474-.637-.008-.057-.026-.113-.051-.165.198-.123.459-.062.582.136.031.05.051.105.059.163.199-.199.199-.522 0-.722-.081-.081-.186-.132-.299-.146 0-.157-.121-.287-.277-.299h-.488c-.175 0-.277.27-.481.27-.649 0-1.925-1.174-1.925-1.677s1.203-.817 1.203-1.604c0-1.021-1.006-1.371-1.859-2.034.494-.351 1.136-.417 1.691-.175.058-.284.241-.211.306-.729.182.437 0 .809.175.992.146-.204.51-.175.488-.729.109.335-.139.853.109 1.079.051-.277.211-.335.313-.335s.197.08.197.241c0 .408-.503.219-.503.685 0 .19.241.255.241.386-.027.147-.167.244-.314.217-.049-.009-.094-.031-.131-.064.071.191.248.322.452.335.25-.018.467-.176.561-.408.117.292 0 .62-.182.663.219.109.729 0 .729-.671.299.051.452.248.277.612.248-.058.467-.182.467-.445s-.219-.255-.117-.518m-5.822-9.209c-.284 0-.277-.248-.729-.365.38-.094.753-.216 1.115-.365.08.321-.058.729-.408.729m1.976 2.093c-.286.108-.606-.037-.714-.324-.006-.016-.011-.032-.016-.048-.066-.219-.124-.394-.044-.474.157-.1.206-.307.109-.467-.102-.219-.343-.117-.591-.051.117-.211.124-.365 0-.343s-.19.328-.299.292-.044-.211-.044-.313.087-.175.219-.233l1.035-.394c.139-.051.233-.073.321 0s.233.153.182.255-.27-.124-.416 0 0 .204.211.27c-.226.131-.467.219-.386.452s.182.255.401.255.197.168.299.372c.14.244.056.556-.188.697-.022.012-.044.023-.067.032m.068-2.916c-.277.219-.649 0-.817-.27.385-.148.76-.321 1.123-.518-.277.423-.087.612-.306.787M80.788 34.998c.044.477.466.828.943.785.416-.038.746-.368.785-.785.044-.477-.307-.9-.785-.943-.477-.044-.9.307-.943.785-.005.053-.005.106 0 .159m.226-.001c-.004-.354.28-.645.634-.649.354-.004.645.28.649.634.004.354-.28.645-.634.649h-.007c-.35.004-.638-.277-.642-.627v-.007M77.58 35.786c-.114.085-.186.215-.197.357-.03.156.019.317.131.43.112.125.264.207.43.233.163.034.333.011.481-.066.142-.07.244-.202.277-.357.025-.337-.225-.633-.561-.663-.189-.04-.385-.003-.547.102m.387.729c-.241-.044-.416-.226-.386-.408.019-.071.063-.133.124-.175.113-.07.249-.094.379-.066.2.015.364.166.394.365.003.014.003.029 0 .044 0 .175-.255.284-.503.241M72.833 23.749c-.255.173-.332.515-.175.78.221.216.574.216.795 0 .137-.109.231-.265.262-.437.016-.121-.015-.244-.087-.343-.077-.093-.187-.153-.306-.168-.178-.019-.356.034-.496.146m-.044.503c.008-.131.075-.252.182-.328.091-.077.209-.113.328-.102.063.005.122.037.16.087.037.05.052.113.044.175-.018.118-.084.223-.182.292-.137.129-.351.129-.488 0-.029-.04-.045-.089-.044-.139M76.566 34.357c-.136.138-.213.324-.211.518-.003.189.067.372.197.51.089.096.212.154.343.16.133 0 .261-.053.357-.146.256-.27.283-.683.066-.984-.09-.13-.236-.211-.394-.219-.133 0-.261.053-.357.146m.335.977c-.074-.005-.144-.036-.197-.087-.088-.103-.132-.237-.124-.372-.002-.133.048-.261.139-.357.051-.055.122-.086.197-.087.19 0 .328.211.328.459-.002.135-.054.265-.146.365-.054.049-.124.078-.197.08ZM72.352 27.394c-.124.046-.226.137-.284.255-.113.318.049.668.365.787.172.087.371.103.554.044.126-.045.23-.136.292-.255.051-.121.051-.258 0-.379-.069-.182-.208-.329-.386-.408-.172-.087-.371-.103-.554-.044m.174.846c-.226-.109-.343-.335-.262-.496.032-.067.09-.117.16-.139.131-.042.273-.029.394.036.121.053.216.153.262.277.03.067.03.144 0 .211-.034.068-.095.118-.168.139-.124.05-.262.05-.386 0"/><path d="M81.4 26.519c.284.766.838 1.043 1.261.846-.948-.109-.175-1.735-1.4-1.735-.065-.008-.131-.008-.197 0-.205-.217-.496-.332-.795-.313-.8.058-1.417.729-1.407 1.531 0 2.187 2.574 2.421 2.574 4.374.02.495-.364.912-.859.933h-.059c-.43 0-.78-.488-1.145-1.254-.274-.487-.591-.948-.948-1.378.111.086.246.135.386.139.132.007.261-.04.357-.131.093-.094.147-.218.153-.35-.022-.393-.336-.707-.729-.729-.132-.007-.261.04-.357.131-.093.093-.145.219-.146.35-.011.075-.011.151 0 .226-.492-.517-.859-1.141-1.072-1.823.06-.385.248-.739.532-1.006l.102.051.08-.087c.102-.109.313-.35.729-.824l.109-.109-.277-.226c.075-.177.136-.36.182-.547.087.357.27.583.525.518-.168-.372.168-.868-.051-1.764.204.343.51.525.729.467-.569-.51.168-1.218-.576-2.311.173.087.383.051.518-.087-.685-.095-.372-.962-1.56-1.269.292-.051.467-.226.423-.386-.313.233-.591-.416-1.626-.401-.106-.441-.41-.807-.824-.992.056.266.03.543-.073.795l-3.361-3.303c-.102-.095-.153-.117-.182-.08s0 .095 0 .16l2.916 3.645c-.219.073-.43.168-.656.248-.152.06-.25.208-.248.372-.444.22-.86.491-1.239.809-.175.168-.321.204-.16.569.058.139-.131.481.292.226.27-.16.897-.503.984-.292s-.255.262-.467.343-.437.241-.408.328.204 0 .211.08c.006.091.077.165.168.175.08 0 .19-.175.255-.117s0 .452-.102.554c.297-.046.523-.291.547-.591 0-.248.08-.306.124-.343s.117.262.044.437c.175 0 .357-.262.328-.685.069-.062.156-.103.248-.117.109 0 .321.299.634.299.426.008.805-.27.926-.678.036-.162.007-.332-.08-.474.177.154.275.378.27.612 0 .809-1.458 1.188-2.02 1.75l-.066.058-.671-.255-.051.146c.003.044.003.088 0 .131-.073.226-.219.729-.306.984v.109l.058.036c-.408.501-.679 1.099-.787 1.735-.154-.16-.317-.311-.488-.452.008-.061.008-.122 0-.182.017-.172-.039-.344-.153-.474-.144-.184-.41-.217-.594-.073-.014.011-.028.023-.041.036-.023.016-.043.035-.058.058l-.073-.051c-.235-.17-.457-.358-.663-.561-.073-.084-.181-.127-.292-.117h-.299c-.095 0-.153.08-.27.175s-.204.168-.379.306l.241.255.131.153.117-.095c.073-.048.16-.071.248-.066.122.012.231.083.292.19.058.095.605.802 1.057 1.305l-.146.051c-.267.064-.543.081-.817.051-.197 0-.233-.066-.365.139-.054.087-.115.17-.182.248-.058.08-.109.168 0 .401.314.524.602 1.065.86 1.619.16.401.357.459.663.591.322.138.629.306.919.503v-.299c-.152-.111-.322-.195-.503-.248-.109-.044-.146-.087 0-.087.269.048.531.129.78.241-.12-.307-.304-.586-.54-.817-.175-.071-.371-.071-.547 0 .012.067-.032.132-.1.144-.01.002-.021.002-.032.002-.064.005-.12-.043-.125-.108-.001-.018.002-.036.008-.053 0-.087.16-.117.131-.292s-.241-.197-.372-.211c-.197-.277-.416-.685-.518-.846s0-.262 0-.313.51.066 1.188.109c.241 0 .54 0 .846.044.013.89.644 1.652 1.516 1.83.569.128 1.046.513 1.29 1.043-2.187 0-2.559.824-2.559 1.64s.78.868.78 1.56-1.852.853-2.413.933c-.326.028-.634.158-.882.372l-.875.86c.118.017.239.017.357 0l.313-.401c.087-.139.153-.255.219-.241s0 .117-.058.262l-.255.43c1.086.073 1.159-.328 1.159-.496s-.27-.277-.109-.386.284 0 .408.117.168.27.467.153l2.676-1.115c.27-.124.197-.241 0-.379-.167-.163-.245-.396-.211-.627 0-.729.437-.94 1.21-.926-.01.114-.01.229 0 .343 0 1.123 1.699 2.187 2.187 2.187.204 0 .481-.153.496.525.054.485.054.974 0 1.458-.016.389-.246.737-.598.904-.343.248-.671 1.006-.817 1.167.153.095.321.109.445-.255.054-.232.179-.44.357-.598-.131.335-.226.831-.292.977.43.073 1.137-.321 1.137-.627s-.248-.277-.248-.481c.025-.115.13-.196.248-.19.136 0 .259.08.313.204.197-.102.313-.299.306-.729v-.54.073c.091.129.236.21.394.219.168.009.334-.037.474-.131.162-.103.278-.265.321-.452.004-.036.004-.073 0-.109.003-.236-.168-.438-.401-.474-.191-.035-.387.007-.547.117-.152.095-.264.243-.313.416 0-.612-.08-1.188-.058-1.458 0-.343 0-.496-.08-.547s-.241.146-.408.146c-.382-.166-.638-.532-.663-.948 0-.481.525-1.108.496-1.772 0-.204.124-.313.204-.124.119.282.279.544.474.78-.139.838.78 1.648 1.538 1.043-.372.058-.634-.277-.795-.605h.313c.348.286.863.236 1.149-.113.095-.116.157-.256.178-.405-.172.186-.418.285-.671.27.32-.265.497-.664.481-1.079 0-2.114-2.566-2.362-2.566-4.287.033-.605.518-1.086 1.123-1.115.145-.004.286.042.401.131-.18.198-.268.463-.241.729.066 1.524 2.552 1.458 2.581 2.187.277-1.101-1.575-.766-1.64-2.246m-6.608-5.831c.124-.233 0-.583.423-.583.204 0 .394.204.642.284-.372.022-.735.124-1.064.299m-2.268 4.659c-.005.115-.052.223-.131.306-.046.041-.106.062-.168.058-.139 0-.255-.175-.255-.365.005-.115.052-.223.131-.306.047-.04.106-.064.168-.066.062.009.119.04.16.087.071.088.105.201.095.313m7.334 10.683c.036-.13.119-.242.233-.313.11-.077.246-.108.379-.087.073.015.138.056.182.117.027.068.027.144 0 .211-.03.131-.111.244-.226.313-.157.149-.404.149-.561 0-.027-.068-.027-.144 0-.211m-1.538-7.088c-.003-.074.026-.146.08-.197.057-.048.129-.074.204-.073.133.016.257.078.35.175.094.095.147.224.146.357.003.074-.026.146-.08.197-.053.05-.124.076-.197.073-.137-.011-.265-.073-.357-.175-.093-.095-.146-.224-.146-.357m-4.214-4.782c.117-.372.343-1.115.343-1.115l.394.153c-.139.065-.264.154-.372.262.11.057.24.057.35 0l-.153.394c-.057-.104-.147-.186-.255-.233-.067.213.05.441.262.51.233.117.394.139.459 0s-.08-.321-.284-.241c0-.204.095-.313.226-.313s.197.102.226.233c-.038-.306.15-.595.445-.685.11.279.017.597-.226.773.109-.061.245-.043.335.044.072.117.035.269-.081.341-.016.01-.033.018-.05.024-.008-.108-.103-.19-.211-.182-.063.005-.121.04-.154.094-.066.131 0 .262.255.386.186.127.44.079.567-.107.011-.017.022-.035.031-.053-.126-.03-.259-.003-.365.073l.262-.488c.017.111.074.212.16.284.06-.152.06-.322 0-.474l.561.328c-.161.027-.305.116-.401.248.106.037.222.037.328 0l-.292.467c.012-.128-.031-.255-.117-.35-.128.185-.082.44.103.568.016.011.033.021.05.03.219.124.386.153.467 0s-.051-.335-.255-.262c0-.204.109-.306.248-.299s.182.131.204.262c.034-.298.265-.535.561-.576.066.303-.093.609-.379.729.109-.053.239-.023.313.073.073.117 0 .27-.153.357 0-.109-.088-.197-.197-.197-.06 0-.116.027-.153.073-.066.109 0 .233.255.379.159.158.417.158.576 0-.094-.073-.209-.112-.328-.109l.262-.335c-.007.126.051.247.153.321.038-.147.053-.3.044-.452l.328.262s-.532.561-.795.853l-3.551-2.049Zm3.478 8.748c-.101.192-.34.266-.532.165-.003-.001-.005-.003-.008-.004-.232-.093-.344-.357-.25-.588s.357-.344.588-.25c.232.093.344.357.25.588-.013.032-.029.062-.049.09m1.014-1.597c-.155.122-.38.095-.502-.06s-.095-.38.06-.502c.13-.102.312-.102.442 0 .153.156.153.405 0 .561"/></g></svg>