<svg xmlns="http://www.w3.org/2000/svg" id="Layer_1" data-name="Layer 1" viewBox="0 0 200 100"><defs><style>.cls-1{fill:#6680ba}.cls-2{fill:#242642}.cls-3{fill:#2e3b87}.cls-4{fill:#b2c9d4}</style></defs><path d="M91.385 46.128c-.031-.531-.312-.936-.718-1.217-.375-.312-.874-.468-1.374-.468-.874 0-1.873.188-1.873 1.249 0 .468.375.687.718.843 1.03.437 3.371.562 5.432 1.249 2.06.656 3.871 1.873 3.871 4.526 0 4.495-4.308 5.713-8.242 5.713-3.808 0-7.992-1.53-8.085-5.713h5.9c.031.562.281 1.03.749 1.436.312.281.905.468 1.655.468.812 0 2.091-.312 2.091-1.249s-.531-1.217-3.403-1.717c-4.714-.812-6.618-2.31-6.618-5.089 0-4.09 4.401-5.151 7.648-5.151 3.496 0 7.711.968 7.867 5.12h-5.619Z" class="cls-2"/><path d="M113.921 53.994c0 1.218.062 2.591.749 3.621h-6.306c-.156-.437-.25-1.092-.218-1.53h-.063c-1.311 1.499-3.215 1.935-5.213 1.935-3.122 0-5.713-1.498-5.713-4.901 0-5.12 5.994-4.932 9.147-5.526.843-.156 1.686-.405 1.686-1.436 0-1.092-1.03-1.499-2.029-1.499-1.904 0-2.279.968-2.31 1.655h-5.744c.187-4.558 4.495-5.307 8.335-5.307 7.742 0 7.679 3.215 7.679 6.337v6.649Zm-5.932-3.652c-.749.374-1.592.593-2.435.781-1.373.312-2.092.656-2.092 1.748 0 .749.812 1.499 1.935 1.499 1.405 0 2.498-.843 2.591-2.529v-1.498ZM115.32 41.414h5.963v2.06h.062c1.155-1.623 2.809-2.466 5.276-2.466 2.903 0 5.557 1.779 5.557 5.494v11.113h-6.181v-8.491c0-1.873-.219-3.184-2.029-3.184-1.061 0-2.466.531-2.466 3.122v8.553h-6.181V41.413ZM150.215 55.524c0 3.215-.843 7.742-8.429 7.742-3.84 0-7.898-1.03-8.46-5.401h6.119c.062.156.219.374.344.562.375.562 1.03 1.186 1.811 1.186 1.998 0 2.435-2.372 2.435-3.715v-1.499h-.063c-.999 1.436-2.497 2.247-4.339 2.247-4.776 0-6.93-3.559-6.93-7.898 0-4.214 2.404-7.742 7.024-7.742 1.811 0 3.528.718 4.246 2.373h.063v-1.967h6.181v14.111Zm-8.554-2.841c2.279 0 2.529-2.185 2.529-3.996 0-1.779-.874-3.184-2.685-3.184-1.748 0-2.622 1.499-2.622 3.215 0 1.842.562 3.965 2.778 3.965M156.68 50.904c.156 1.842 1.217 3.153 3.153 3.153.999 0 2.092-.374 2.591-1.155h5.775c-1.249 3.496-4.651 5.12-8.335 5.12-5.182 0-9.085-3.059-9.085-8.46 0-4.714 3.434-8.554 8.554-8.554 6.431 0 9.209 3.59 9.209 9.896h-11.863Zm5.931-3.215c0-1.498-1.124-2.716-2.716-2.716-1.842 0-2.904.968-3.184 2.716h5.9ZM169.164 41.414h5.931v2.591h.062c.999-1.935 2.31-2.996 4.558-2.996.624 0 1.217.094 1.811.25v5.463c-.624-.218-1.186-.406-2.435-.406-2.435 0-3.746 1.436-3.746 4.901v6.4h-6.181V41.415ZM84.746 62.737h-2.245v-1.576h2.245v1.576Zm-2.245.635h2.245v5.884h-2.245v-5.884ZM85.291 63.372h2.165v.748h.023c.419-.59 1.02-.896 1.916-.896 1.054 0 2.018.646 2.018 1.995v4.036h-2.245v-3.084c0-.68-.079-1.156-.737-1.156-.386 0-.896.193-.896 1.134v3.106H85.29v-5.884ZM95.35 65.084c-.011-.193-.113-.34-.261-.442-.136-.114-.317-.171-.499-.171-.318 0-.68.068-.68.453 0 .17.136.249.261.306.374.159 1.224.204 1.973.454.748.238 1.406.68 1.406 1.644 0 1.632-1.565 2.075-2.993 2.075-1.383 0-2.902-.556-2.936-2.075h2.142c.011.204.102.374.272.521.114.102.329.17.601.17.295 0 .76-.114.76-.453s-.193-.443-1.236-.624c-1.712-.295-2.403-.839-2.403-1.848 0-1.485 1.599-1.871 2.778-1.871 1.27 0 2.8.352 2.857 1.859h-2.041Z" class="cls-2"/><path d="M100.514 63.372h1.202v1.383h-1.202v2.052c0 .545.125.782.692.782.17 0 .34-.011.51-.034v1.701c-.453 0-.964.068-1.44.068-.952 0-2.007-.147-2.007-1.757v-2.812h-.998v-1.383h.998v-1.791h2.245v1.791ZM104.322 62.737h-2.245v-1.576h2.245v1.576Zm-2.245.635h2.245v5.884h-2.245v-5.884ZM107.904 63.372h1.202v1.383h-1.202v2.052c0 .545.125.782.692.782.17 0 .34-.011.51-.034v1.701c-.453 0-.964.068-1.44.068-.952 0-2.007-.147-2.007-1.757v-2.812h-.998v-1.383h.998v-1.791h2.245v1.791ZM115.545 69.256h-2.165v-.748h-.023c-.419.59-1.02.896-1.916.896-1.054 0-2.018-.646-2.018-1.995v-4.036h2.245v3.084c0 .68.079 1.156.737 1.156.385 0 .895-.193.895-1.134v-3.106h2.245v5.884ZM118.801 63.372h1.202v1.383h-1.202v2.052c0 .545.125.782.692.782.17 0 .34-.011.51-.034v1.701c-.453 0-.964.068-1.44.068-.953 0-2.007-.147-2.007-1.757v-2.812h-.998v-1.383h.998v-1.791h2.245v1.791ZM122.213 66.818c.057.669.442 1.145 1.145 1.145.363 0 .76-.136.941-.419h2.097c-.453 1.269-1.689 1.859-3.027 1.859-1.882 0-3.299-1.111-3.299-3.073 0-1.712 1.247-3.107 3.106-3.107 2.335 0 3.344 1.304 3.344 3.594h-4.308Zm2.154-1.168c0-.544-.408-.986-.986-.986-.669 0-1.055.351-1.156.986h2.143ZM96.861 32.583c-.403-1.348-1.397-2.092-3.095-2.092-1.31 0-2.308.665-2.813 1.644l.463-1.493h-2.328l-.83 3.771h-.046l-.799-3.771h-2.097l-.754 3.771h-.035l-.888-3.771h-2.325l1.846 6.063h2.292l.888-3.751h.035l.865 3.751h2.293l1.088-3.504c-.022.161-.037.324-.037.491 0 2.02 1.394 3.165 3.284 3.165 1.301 0 2.476-.54 2.992-1.698v1.546h2.223v-8.341H96.86v4.218Zm-2.992-.644c.651 0 1.073.468 1.073 1.076h-2.224c.114-.703.513-1.076 1.151-1.076Zm2.992 3.037h-2.002c-.194.294-.603.434-.969.434-.728 0-1.126-.504-1.184-1.227h4.154v.793ZM127.264 35.409c-.732 0-1.128-.504-1.185-1.227h4.365c-.01-2.347-1.025-3.69-3.306-3.69-1.586 0-2.714.974-3.064 2.303v-.258c0-.982-.512-2.045-2.019-2.045-.876 0-1.415.314-1.722.618-.032.036-.067.072-.089.105-.115.119-.173.2-.217.247-.284-.631-.97-.97-1.596-.97-.82 0-1.481.257-1.948.97h-.036v-.818h-2.155v6.063h2.224v-3.284c0-.641.194-1.119.787-1.119.718 0 .762.547.762 1.119v3.284h2.236v-3.284c0-.641.193-1.119.785-1.119.708 0 .765.547.765 1.119v3.284h2.224v-2.076c.367 1.431 1.591 2.228 3.167 2.228 1.369 0 2.601-.595 3.068-1.883h-2.078c-.192.294-.602.434-.966.434Zm-.023-3.47c.65 0 1.069.468 1.069 1.076h-2.22c.115-.703.514-1.076 1.152-1.076ZM111.065 30.492c-1.661 0-2.64.835-3.031 1.958-.326-1.363-1.571-1.958-2.884-1.958-1.651 0-2.906.98-3.189 2.511v-4.637h-2.224v8.341h2.224V34.42c.279 1.609 1.495 2.439 3.121 2.439 1.39 0 2.535-.692 2.959-1.95.395 1.117 1.373 1.95 3.023 1.95 2.223 0 3.226-1.507 3.226-3.19s-1.003-3.177-3.226-3.177Zm-5.012 3.817c-.059.492-.364.901-.946.901-.718 0-.981-.56-.981-1.531 0-.736.182-1.541 1.027-1.541.525 0 .841.351.841.959h1.887c-.027.187-.042.378-.042.571 0 .217.017.432.052.641h-1.837Zm5.013.901c-.877 0-1.004-.888-1.004-1.542s.127-1.529 1.004-1.529 1.002.876 1.002 1.529-.126 1.542-1.002 1.542Z" class="cls-2"/><path d="M21.967 35.006h-2.272c-.349 0-.632-.283-.632-.632v-2.272c0-.349.283-.632.632-.632h2.272c.349 0 .632.283.632.632v2.272c0 .349-.283.632-.632.632Z" class="cls-1"/><path d="M47.993 36.381h-4.039c-.621 0-1.123-.503-1.123-1.123v-4.039c0-.621.503-1.123 1.123-1.123h4.039c.621 0 1.123.503 1.123 1.123v4.039c0 .621-.503 1.124-1.123 1.124Z" class="cls-3"/><path d="M55.869 27.214H52.84c-.465 0-.843-.377-.843-.843v-3.029c0-.465.377-.843.843-.843h3.029c.465 0 .843.377.843.843v3.029c0 .465-.377.843-.843.843Z" class="cls-4"/><path d="M56.374 36.381h-4.039c-.621 0-1.123-.503-1.123-1.123v-4.039c0-.621.503-1.123 1.123-1.123h4.039c.621 0 1.123.503 1.123 1.123v4.039c0 .621-.503 1.124-1.123 1.124ZM63.872 26.625H61.6c-.349 0-.632-.283-.632-.632v-2.272c0-.349.283-.632.632-.632h2.272c.349 0 .632.283.632.632v2.272c0 .349-.283.632-.632.632Z" class="cls-1"/><path d="M72.631 35.595h-3.029c-.465 0-.843-.377-.843-.843v-3.029c0-.465.377-.843.843-.843h3.029c.465 0 .843.377.843.843v3.029c0 .465-.377.843-.843.843Z" class="cls-4"/><path d="M22.345 52.357h-3.029c-.465 0-.843-.377-.843-.843v-3.029c0-.465.377-.843.843-.843h3.029c.465 0 .843.377.843.843v3.029c0 .466-.377.843-.842.843Z" class="cls-1"/><path d="M31.231 44.762h-4.039c-.621 0-1.123-.503-1.123-1.123V39.6c0-.621.503-1.123 1.123-1.123h4.039c.621 0 1.123.503 1.123 1.123v4.039c0 .621-.503 1.123-1.123 1.123Z" class="cls-4"/><path d="M31.231 53.143h-4.039c-.621 0-1.123-.503-1.123-1.123v-4.039c0-.621.503-1.123 1.123-1.123h4.039c.621 0 1.123.503 1.123 1.123v4.039c0 .621-.503 1.123-1.123 1.123Z" class="cls-3"/><path d="M40.016 53.771h-4.847c-.745 0-1.348-.604-1.348-1.348v-4.847c0-.745.604-1.348 1.348-1.348h4.847c.745 0 1.348.604 1.348 1.348v4.847c0 .745-.604 1.348-1.348 1.348ZM48.397 45.391H43.55c-.745 0-1.348-.604-1.348-1.348v-4.847c0-.745.604-1.348 1.348-1.348h4.847c.745 0 1.348.604 1.348 1.348v4.847c0 .744-.604 1.348-1.348 1.348Z" class="cls-1"/><path d="M48.397 53.771H43.55c-.745 0-1.348-.604-1.348-1.348v-4.847c0-.745.604-1.348 1.348-1.348h4.847c.745 0 1.348.604 1.348 1.348v4.847c0 .745-.604 1.348-1.348 1.348ZM56.778 45.391h-4.847c-.745 0-1.348-.604-1.348-1.348v-4.847c0-.745.604-1.348 1.348-1.348h4.847c.745 0 1.348.604 1.348 1.348v4.847c0 .744-.604 1.348-1.348 1.348Z" class="cls-4"/><path d="M64.755 53.143h-4.039c-.621 0-1.123-.503-1.123-1.123v-4.039c0-.621.503-1.123 1.123-1.123h4.039c.621 0 1.123.503 1.123 1.123v4.039c0 .621-.503 1.123-1.123 1.123Z" class="cls-3"/><path d="M31.231 69.905h-4.039c-.621 0-1.123-.503-1.123-1.123v-4.039c0-.621.503-1.123 1.123-1.123h4.039c.621 0 1.123.503 1.123 1.123v4.039c0 .621-.503 1.123-1.123 1.123Z" class="cls-4"/><path d="M40.016 62.152h-4.847c-.745 0-1.348-.604-1.348-1.348v-4.847c0-.745.604-1.348 1.348-1.348h4.847c.745 0 1.348.604 1.348 1.348v4.847c0 .745-.604 1.348-1.348 1.348ZM47.993 69.905h-4.039c-.621 0-1.123-.503-1.123-1.123v-4.039c0-.621.503-1.123 1.123-1.123h4.039c.621 0 1.123.503 1.123 1.123v4.039c0 .621-.503 1.123-1.123 1.123ZM56.778 62.152h-4.847c-.745 0-1.348-.604-1.348-1.348v-4.847c0-.745.604-1.348 1.348-1.348h4.847c.745 0 1.348.604 1.348 1.348v4.847c0 .745-.604 1.348-1.348 1.348Z" class="cls-3"/><path d="M56.374 69.905h-4.039c-.621 0-1.123-.503-1.123-1.123v-4.039c0-.621.503-1.123 1.123-1.123h4.039c.621 0 1.123.503 1.123 1.123v4.039c0 .621-.503 1.123-1.123 1.123Z" class="cls-1"/><path d="M64.755 61.524h-4.039c-.621 0-1.123-.503-1.123-1.123v-4.039c0-.621.503-1.123 1.123-1.123h4.039c.621 0 1.123.503 1.123 1.123v4.039c0 .621-.503 1.123-1.123 1.123Z" class="cls-4"/><path d="M72.253 68.53h-2.272c-.349 0-.632-.283-.632-.632v-2.272c0-.349.283-.632.632-.632h2.272c.349 0 .632.283.632.632v2.272c0 .349-.283.632-.632.632Z" class="cls-1"/><path d="M21.967 76.911h-2.272c-.349 0-.632-.283-.632-.632v-2.272c0-.349.283-.632.632-.632h2.272c.349 0 .632.283.632.632v2.272c0 .349-.283.632-.632.632Z" class="cls-3"/><path d="M64.25 77.5h-3.029c-.465 0-.843-.377-.843-.843v-3.029c0-.465.377-.843.843-.843h3.029c.465 0 .843.377.843.843v3.029c0 .465-.377.843-.843.843Z" class="cls-4"/></svg>