<svg xmlns="http://www.w3.org/2000/svg" viewBox="0 0 200 100"><path fill="#fff" d="M41.028 70.824c1.876 0 3.398-1.522 3.398-3.398s-1.522-3.398-3.398-3.398-3.398 1.522-3.398 3.398 1.522 3.398 3.398 3.398ZM23.444 66.438c1.876 0 3.398-1.522 3.398-3.398s-1.522-3.398-3.398-3.398-3.398 1.522-3.398 3.398 1.522 3.398 3.398 3.398ZM18.453 49.014c1.876 0 3.398-1.522 3.398-3.398s-1.522-3.398-3.398-3.398-3.398 1.522-3.398 3.398 1.522 3.398 3.398 3.398ZM31.037 35.976c1.876 0 3.398-1.522 3.398-3.398s-1.522-3.398-3.398-3.398-3.398 1.522-3.398 3.398 1.522 3.398 3.398 3.398ZM48.62 40.362c1.876 0 3.398-1.522 3.398-3.398s-1.522-3.398-3.398-3.398-3.398 1.522-3.398 3.398 1.522 3.398 3.398 3.398ZM53.612 57.786c1.876 0 3.398-1.522 3.398-3.398s-1.522-3.398-3.398-3.398-3.398 1.522-3.398 3.398 1.522 3.398 3.398 3.398ZM48.632 72.441c1.251 0 2.267-1.016 2.267-2.267s-1.016-2.267-2.267-2.267-2.267 1.016-2.267 2.267 1.016 2.267 2.267 2.267Zm-23.765.833c1.251 0 2.267-1.016 2.267-2.267s-1.016-2.267-2.267-2.267-2.267 1.016-2.267 2.267 1.016 2.267 2.267 2.267Zm-12.6-20.177c1.251 0 2.267-1.016 2.267-2.267s-1.016-2.267-2.267-2.267S10 49.579 10 50.83s1.016 2.267 2.267 2.267ZM36.068 53.5c1.876 0 3.398-1.522 3.398-3.398s-1.522-3.398-3.398-3.398-3.398 1.522-3.398 3.398 1.522 3.398 3.398 3.398ZM23.428 32.092c1.251 0 2.267-1.016 2.267-2.267s-1.016-2.267-2.267-2.267-2.267 1.016-2.267 2.267 1.016 2.267 2.267 2.267Zm23.766-.833c1.251 0 2.267-1.016 2.267-2.267s-1.016-2.267-2.267-2.267-2.267 1.016-2.267 2.267 1.016 2.267 2.267 2.267ZM59.798 51.44c1.251 0 2.267-1.016 2.267-2.267s-1.016-2.267-2.267-2.267-2.267 1.016-2.267 2.267 1.016 2.267 2.267 2.267Zm-23.766-9.365c1.251 0 2.267-1.016 2.267-2.267s-1.016-2.267-2.267-2.267-2.267 1.016-2.267 2.267 1.016 2.267 2.267 2.267ZM27.205 47.174c1.251 0 2.267-1.016 2.267-2.267s-1.016-2.267-2.267-2.267-2.267 1.016-2.267 2.267 1.016 2.267 2.267 2.267ZM27.205 57.368c1.251 0 2.267-1.016 2.267-2.267s-1.016-2.267-2.267-2.267-2.267 1.016-2.267 2.267 1.016 2.267 2.267 2.267ZM36.032 62.466c1.251 0 2.267-1.016 2.267-2.267s-1.016-2.267-2.267-2.267-2.267 1.016-2.267 2.267 1.016 2.267 2.267 2.267ZM44.856 57.368c1.251 0 2.267-1.016 2.267-2.267s-1.016-2.267-2.267-2.267-2.267 1.016-2.267 2.267 1.016 2.267 2.267 2.267ZM44.856 47.174c1.251 0 2.267-1.016 2.267-2.267s-1.016-2.267-2.267-2.267-2.267 1.016-2.267 2.267 1.016 2.267 2.267 2.267ZM72.84 47.122v-1.271l1.645-.283V33.996l-1.645-.283V32.43h5.748c1.299 0 2.426.311 3.39.928.968.617 1.721 1.47 2.259 2.553.538 1.084.809 2.318.809 3.713v.315c0 1.358-.259 2.581-.777 3.673-.518 1.084-1.255 1.94-2.211 2.573-.948.625-2.071.94-3.37.94h-5.852l.004-.004Zm3.633-1.554h2.119c.928 0 1.725-.251 2.39-.757.665-.51 1.175-1.191 1.534-2.04.363-.852.546-1.801.546-2.836V39.6c0-1.068-.183-2.024-.546-2.864-.355-.848-.868-1.518-1.534-2.008-.665-.49-1.462-.737-2.39-.737h-2.119v11.576Zm9.903 1.554v-1.271l1.645-.283v-7.8l-1.645-.283v-1.283h3.633v9.361l1.645.283v1.271H86.38l-.004.004Zm1.542-13.608v-2.127h2.087v2.127h-2.087Zm9.636 13.608-3.884-9.481-1.131-.151v-1.283h4.581v1.283l-1.422.203 2.422 6.214.283.876h.06l.323-.876 2.251-6.214-1.462-.203v-1.283h4.569v1.283l-1.151.151-3.693 9.481h-1.746Zm12.349.211c-1.008 0-1.888-.227-2.633-.685-.745-.462-1.327-1.107-1.737-1.928-.402-.821-.605-1.769-.605-2.844v-.442c0-1.036.211-1.96.637-2.773.43-.821 1-1.466 1.705-1.936.713-.478 1.49-.717 2.33-.717.98 0 1.801.203 2.462.605.665.402 1.167.972 1.502 1.705.335.725.506 1.585.506 2.573v1.239h-7.083l-.032.052c.012.701.135 1.323.363 1.864.235.538.574.96 1.008 1.271.438.311.96.462 1.574.462.673 0 1.263-.096 1.765-.283.51-.195.952-.462 1.323-.797l.777 1.291c-.39.378-.908.697-1.554.96-.637.255-1.41.382-2.31.382h.004-.002Zm-2.856-6.76h5.035v-.263c0-.526-.096-.992-.283-1.402-.183-.418-.458-.745-.829-.98-.363-.243-.821-.363-1.37-.363-.442 0-.848.131-1.211.394-.363.255-.661.605-.896 1.048s-.39.948-.462 1.514l.02.052h-.004Zm8.553 6.549v-1.271l1.645-.283v-7.8l-1.645-.283v-1.283h3.422l.171 1.39.02.191c.311-.558.689-.996 1.139-1.311.458-.315.98-.474 1.566-.474.207 0 .422.02.637.06.223.032.378.068.474.1l-.263 1.844-1.382-.08c-.526-.032-.964.088-1.323.363-.355.271-.633.633-.829 1.091v6.182l1.645.283v1.271h-5.274l-.004.008v.002Zm13.054.211c-.733 0-1.418-.076-2.059-.223-.637-.147-1.319-.378-2.04-.685l-.02-2.593h1.502l.374 1.566c.378.155.741.271 1.088.343.355.068.741.1 1.151.1.809 0 1.386-.155 1.737-.462.351-.311.526-.693.526-1.151 0-.43-.179-.793-.534-1.091-.351-.303-.988-.558-1.916-.765-1.319-.303-2.291-.705-2.916-1.211-.617-.51-.928-1.191-.928-2.04 0-.594.171-1.119.514-1.585.343-.47.821-.845 1.434-1.119.613-.275 1.327-.414 2.139-.414s1.534.096 2.119.283c.594.187 1.107.442 1.542.757l.1 2.494h-1.494l-.323-1.454c-.235-.175-.514-.311-.837-.402-.323-.096-.693-.139-1.111-.139-.617 0-1.123.143-1.514.434-.382.291-.574.653-.574 1.091 0 .255.056.478.163.665.116.187.331.359.645.514.315.147.781.295 1.39.442 1.522.355 2.577.809 3.179 1.362.605.55.908 1.231.908 2.04 0 .92-.343 1.693-1.028 2.318-.681.617-1.753.928-3.219.928l.002-.003Zm5.823-.211v-1.271l1.645-.283v-7.8l-1.645-.283v-1.283h3.633v9.361l1.645.283v1.271h-5.274l-.004.004Zm1.542-13.608v-2.127h2.087v2.127h-2.087Zm8.959 13.779c-.809 0-1.45-.235-1.928-.705-.47-.478-.705-1.239-.705-2.279V37.68h-1.725v-1.474h1.725v-2.633h1.988v2.633h2.37v1.474h-2.37v6.629c0 .526.104.912.311 1.159s.486.374.837.374c.235 0 .498-.02.789-.06.291-.048.514-.088.677-.12l.271 1.303c-.291.088-.645.163-1.068.231-.418.068-.809.1-1.171.1v-.004h-.001Zm5.88 4.235c-.155 0-.359-.02-.605-.06-.247-.032-.442-.068-.574-.1l.203-1.566c.116.012.271.024.474.032.203.012.339.02.414.02.422 0 .765-.163 1.028-.486.271-.323.518-.765.745-1.323l.474-1.151-3.864-9.25-1.171-.163v-1.283h4.581v1.283l-1.323.203 2.127 5.457.514 1.422h.06l2.522-6.88-1.39-.203v-1.283h4.489v1.283l-1.131.163-4.298 11.146c-.203.526-.446.992-.737 1.402-.283.418-.633.745-1.048.98-.41.235-.908.355-1.494.355h.004v.002ZM72.84 68.406v-1.271l1.645-.283V55.28l-1.645-.283v-1.271h6.549c1.068 0 1.972.163 2.705.486.741.315 1.303.777 1.685 1.382.382.605.574 1.346.574 2.219s-.187 1.585-.566 2.167c-.37.586-.896 1.028-1.585 1.33-.685.295-1.502.454-2.442.474l-3.29.06v5.003l1.645.283v1.271h-5.274v.004Zm9.696 0-3.27-7.334 1.988-.02 2.713 5.872 1.02.183v1.303h-2.45v-.004Zm-6.063-8.123h2.713c1.111 0 1.916-.211 2.422-.637.506-.422.757-1.044.757-1.856s-.243-1.386-.725-1.836c-.486-.45-1.235-.677-2.251-.677h-2.916v5.007Zm15.209 8.334c-1.008 0-1.88-.235-2.613-.705-.725-.478-1.287-1.131-1.685-1.968-.398-.841-.594-1.801-.594-2.876v-.223c0-1.076.199-2.032.594-2.864.398-.841.96-1.502 1.685-1.976.733-.478 1.597-.717 2.593-.717s1.876.239 2.601.717c.733.478 1.299 1.131 1.693 1.968.398.833.594 1.793.594 2.876v.223c0 1.084-.199 2.044-.594 2.884-.398.833-.96 1.486-1.685 1.956s-1.589.705-2.593.705h.004Zm0-1.554c.633 0 1.159-.171 1.585-.514.43-.351.753-.825.968-1.422.223-.605.335-1.291.335-2.059v-.223c0-.765-.112-1.45-.335-2.048-.215-.605-.538-1.08-.968-1.422-.43-.351-.964-.526-1.605-.526s-1.163.175-1.593.526c-.43.343-.753.817-.968 1.422-.215.598-.323 1.283-.323 2.048v.223c0 .765.108 1.454.323 2.059.215.598.538 1.072.968 1.422.438.343.976.514 1.613.514Zm6.103 1.343v-1.271l1.645-.283v-12.62l-1.645-.283v-1.283h3.633v14.185l1.645.283v1.271h-5.278Zm11.473.211c-1.008 0-1.888-.227-2.633-.685-.745-.462-1.327-1.107-1.737-1.928-.402-.821-.605-1.769-.605-2.844v-.442c0-1.036.211-1.96.637-2.773.43-.821 1-1.466 1.705-1.936.713-.478 1.49-.717 2.33-.717.98 0 1.801.203 2.462.605.665.402 1.167.972 1.502 1.705.335.725.506 1.585.506 2.573v1.239h-7.083l-.032.052c.012.701.135 1.323.363 1.864.235.538.57.96 1.008 1.271.438.311.96.462 1.574.462.673 0 1.263-.096 1.765-.283.51-.195.952-.462 1.323-.797l.777 1.291c-.39.378-.908.697-1.554.96-.637.255-1.41.382-2.31.382h.004-.002Zm-2.856-6.76h5.035v-.263c0-.526-.096-.992-.283-1.402-.183-.418-.458-.745-.829-.98-.363-.243-.821-.363-1.37-.363-.442 0-.848.131-1.211.394-.363.255-.661.605-.896 1.048s-.39.948-.462 1.514l.02.052h-.004Zm13.922 6.549v-1.271l1.645-.283V55.28l-1.645-.283v-1.283h4.298l4.732 11.146h.06l4.581-11.146h4.43v1.283l-1.645.283v11.572l1.645.283v1.271h-5.274v-1.271l1.737-.283V56.431l-.052-.012-4.772 11.461h-1.323l-4.932-11.441-.052.012.072 6.143v4.258l1.777.283v1.271h-5.282Zm24.726.211c-1.008 0-1.88-.235-2.613-.705-.725-.478-1.287-1.131-1.685-1.968-.398-.841-.594-1.801-.594-2.876v-.223c0-1.076.199-2.032.594-2.864.398-.841.96-1.502 1.685-1.976.733-.478 1.597-.717 2.593-.717s1.876.239 2.601.717c.733.478 1.299 1.131 1.693 1.968.398.833.594 1.793.594 2.876v.223c0 1.084-.199 2.044-.594 2.884-.398.833-.96 1.486-1.685 1.956-.725.47-1.589.705-2.593.705h.004Zm0-1.554c.633 0 1.159-.171 1.585-.514.43-.351.753-.825.968-1.422.223-.605.335-1.291.335-2.059v-.223c0-.765-.112-1.45-.335-2.048-.215-.605-.538-1.08-.968-1.422-.43-.351-.964-.526-1.605-.526s-1.163.175-1.593.526c-.43.343-.753.817-.968 1.422-.215.598-.323 1.283-.323 2.048v.223c0 .765.108 1.454.323 2.059.215.598.538 1.072.968 1.422.438.343.976.514 1.613.514Zm11.054 1.554c-.888 0-1.649-.219-2.291-.657-.633-.442-1.115-1.06-1.454-1.844-.335-.789-.506-1.705-.506-2.753v-.211c0-1.171.167-2.195.506-3.075.335-.88.825-1.566 1.462-2.048.637-.49 1.406-.737 2.298-.737.645 0 1.215.12 1.705.363.498.235.92.578 1.271 1.028v-4.45l-1.645-.283v-1.283h3.633v14.185l1.645.283v1.271h-3.37l-.163-1.303c-.355.498-.793.876-1.311 1.131-.51.255-1.107.382-1.785.382h.005Zm.506-1.613c.594 0 1.091-.135 1.494-.402.402-.271.737-.649 1-1.139V60.4c-.255-.458-.59-.821-1-1.088-.41-.271-.9-.402-1.474-.402-.633 0-1.155.183-1.566.546-.41.355-.717.852-.916 1.494-.203.633-.303 1.37-.303 2.211v.211c0 1.095.227 1.976.677 2.645.45.665 1.147 1 2.087 1v-.012Zm12.409 1.613c-1.008 0-1.888-.227-2.633-.685-.745-.462-1.327-1.107-1.737-1.928-.402-.821-.605-1.769-.605-2.844v-.442c0-1.036.211-1.96.637-2.773.43-.821 1-1.466 1.705-1.936.713-.478 1.49-.717 2.33-.717.984 0 1.801.203 2.462.605.665.402 1.167.972 1.502 1.705.339.725.506 1.585.506 2.573v1.239h-7.083l-.032.052c.016.701.135 1.323.363 1.864.235.538.574.96 1.008 1.271.438.311.96.462 1.574.462.673 0 1.263-.096 1.765-.283.51-.195.952-.462 1.319-.797l.777 1.291c-.39.378-.908.697-1.554.96-.637.255-1.41.382-2.31.382h.008-.002Zm-2.856-6.76h5.031v-.263c0-.526-.092-.992-.283-1.402-.183-.418-.458-.745-.829-.98-.363-.243-.821-.363-1.37-.363-.442 0-.848.131-1.211.394-.363.255-.661.605-.896 1.048s-.39.948-.462 1.514l.02.052Zm8.473 6.549v-1.271l1.641-.283v-12.62l-1.641-.283v-1.283h3.629v14.185l1.645.283v1.271h-5.274Zm11.118.211c-.733 0-1.418-.076-2.056-.223s-1.319-.378-2.04-.685l-.02-2.593h1.502l.37 1.566c.378.155.741.267 1.091.343.355.068.741.1 1.151.1.809 0 1.386-.155 1.733-.462.351-.311.526-.693.526-1.151 0-.43-.175-.793-.534-1.088-.351-.303-.988-.558-1.916-.765-1.319-.303-2.291-.705-2.916-1.211-.617-.51-.928-1.191-.928-2.04 0-.594.171-1.119.514-1.585.343-.47.821-.845 1.43-1.119.609-.275 1.327-.414 2.139-.414s1.534.096 2.119.283c.59.187 1.107.442 1.546.757l.1 2.494h-1.494l-.323-1.454c-.235-.175-.514-.311-.837-.402-.323-.096-.693-.139-1.111-.139-.617 0-1.123.143-1.514.434-.382.291-.574.653-.574 1.091 0 .255.052.478.163.665s.331.359.645.514c.315.147.781.295 1.39.442 1.522.359 2.577.809 3.179 1.362.605.55.908 1.231.908 2.04 0 .92-.343 1.693-1.028 2.318-.681.617-1.753.928-3.219.928v-.004l.004-.002Z"/></svg>