<svg xmlns="http://www.w3.org/2000/svg" data-name="Layer 1" viewBox="0 0 200 100"><path d="M174.881 64.872c-.311-.897-1.353-1.401-2.226-1.021-2.796 1.175-4.016.177-4.419-.151-2.281-1.677-4.225-9.119-3.069-20.651.1-.994-.562-1.896-1.499-2.013s-1.82.647-1.903 1.589c-.022.195-.593 4.267-.249 10.278-2.452-.248-5.221.306-7.343 1.608-1.882 1.154-3.647 3.073-4.393 5.304 0 0-.998 3.941-3.383 4.368-1.047.188-1.94-1.786-3.116-5.094-1.078-3.027-2.506-6.287-5.309-6.18-2.587.065-4.805 2.473-6.081 4.905.055-.952.04-1.906-.043-2.855-.149-1.443-.678-2.09-1.725-2.097-1.844.091-3.114 3.827-3.757 5.174-1.093 2.534-2.587 6.005-5.138 6.144-2.91.157-3.638-5.808-3.95-8.357-.143-1.543-.457-2.974-2.048-2.931-1.357.034-1.953 1.656-2.283 2.872-.562 2.077-2.587 8.838-5.783 8.73-2.116-.081-2.881-3.844-3.69-7.827-.862-3.759-1.63-10.18-6.083-10.1-2.1.027-3.862 2.134-4.644 4.158-1.037-3.695-3.489-4.111-4.515-4.115-1.87-.009-3.416 1.334-4.624 3.998-.068-.926-.417-3.55-1.354-6.575-2.502-7.968-8.084-14.513-16.513-15.867.845-2.104.884-2.183 1.385-3.309.491-1.106.726-1.539 1.293-2.382 1.112-1.646.402-3.148-.97-3.245-1.975-.141-2.512 1.401-3.32 3.836-.97 2.62-.804 2.404-1.763 4.932-3.277.108-6.64 1.044-9.943 2.785-2.019-2.698-9.866-14.829-13.537-12.916-1.685.754-1.078 3.541-.194 5.535 1.64 3.772 4.687 8.132 6.643 12.466-3.847 3.593-8.191 9.012-10.68 14.498-3.445 1.847-6.982 3.389-8.901 6.407-3.329 5.219 5.193 6.522 9.932 6.375 3.88 4.484 10.375 5.174 16.598 4.948.49 5.305 2.156 13.666 7.41 14.241 1.178 0 2.802-.581 3.952-3.341 1.445-3.293 1.626-10.065 1.371-14.335 3.772-2.324 6.18-5.952 5.688-10.239 2.866-1.497 5.9-4.45 5.305-6.654-.862-3.19-10.803-3.665-16.06-3.583 1.224-3.726 3.062-8.88 4.655-13.053 8.211.822 12.903 7.833 14.85 15.534 2.105 8.343 1.258 16.313 1.235 18.527-.026 2.49 1.491 3.88 2.662 2.263.368-.545.596-1.355.68-2.407.247-3.148 1.418-12.536 3.494-14.325 2.439-1.608 3.198 6.036 2.948 14.982-.108 2.064 1.582 3.205 2.727 1.85.335-.431.524-1.071.545-1.848-.04-1.617.958-14.982 3.75-15.026 1.031-.06 1.593 2.877 2.135 5.721.485 2.549 1.036 5.439 2.064 7.714 1.23 2.721 2.91 4.046 5.14 4.049 4.85 0 7.105-4.71 7.716-6.266.911 3.332 3.042 6.089 6.46 6.245 3.14.126 6.118-3.261 7.518-5.744-.009 2.147-.203 5.686 1.495 5.771 1.306.061 2.032-1.844 2.945-4.059 1.131-2.96 3.322-7.313 4.659-7.114.915-.083 1.753 2.495 2.357 4.196 1.114 3.107 2.502 6.975 5.82 6.975 1.609-.024 2.956-.754 4.393-2.188 3.522 5.031 11.042.878 13.293-3.135 1.334 3.052 4.271 6.875 10.429 4.382.877-.361 1.304-1.427.959-2.354ZM32.749 59.656c-2.77-.202-3.799-.53-3.914-1.23-.117-.724 2.955-2.789 4.601-3.557-.2 1.713-.072 3.341.389 4.839-.374-.007-.733-.025-1.077-.053Zm23.652-15.242c-.619.049-3.675.3-4.789.522-.251-2.736-1.186-5.793-2.252-8.422.631-.508 1.383-1.05 2.024-1.488 1.715 2.833 3.576 6.086 5.016 9.389Zm-14.46-21.869c.337-.223 6.014 7.211 7.739 9.885-.486.331-1.16.803-1.638 1.166-1.415-2.364-6.437-10.829-6.1-11.051Zm4.721 16.408c.772 2.106 1.416 4.554 1.565 6.631-2.931.669-5.813 1.542-8.623 2.613 2.152-3.561 4.594-6.75 7.058-9.243ZM36.854 55.13c.106-.775.282-1.539.526-2.282 3.427-1.562 6.991-2.801 10.648-3.702-1.078 4.889-4.547 7.786-10.708 10.182-.508-1.218-.665-2.624-.459-4.198h-.006Zm15.316 9.54c-4.033.189-7.382-.192-9.922-1.127-.557-.203-1.097-.448-1.617-.733 3.738-.398 8.091-1.167 11.812-2.005-.153 1.345-.243 2.631-.266 3.865h-.006Zm.815-7.506c-2.326.554-4.751 1.048-7.23 1.468 3.421-2.676 5.425-6.127 5.845-10.231 1.083-.184 3.49-.446 3.68-.457-.948 3.148-1.787 6.472-2.288 9.22h-.006Zm11.677 3.528c-.136-1.107-.303-2.207-.502-3.299 1.113-.417 2.132-.83 3.155-1.283-.208 1.83-1.185 3.32-2.653 4.582Zm7.792-11.982c.079.57-1.009 1.396-2.762 2.321-.55-1.34-1.433-2.519-2.565-3.423 3.742.113 5.25.544 5.328 1.103Zm-5.78 3.932c-.996.467-2.156.951-3.233 1.365-.471-1.914-1.038-3.804-1.699-5.661 3.459.829 4.543 3.464 4.932 4.296Zm-7.092 25.857c-1.318.108-3.643-6.998-3.893-10.72 2.038-.273 4.04-.772 5.969-1.486.044 1.498-.471 12.072-2.076 12.206Zm1.853-15.821c-1.671.748-3.638 1.31-5.827 1.654.051-1.468.182-2.933.394-4.387 1.695-.442 3.327-.916 4.881-1.415.236 1.368.419 2.751.551 4.147Zm-1.242-7.525c-1.131.37-2.309.724-3.524 1.064.441-2.406 1.013-4.786 1.715-7.13.711 1.988 1.315 4.013 1.81 6.066Zm-2.214-15.329c-1.169-2.211-2.556-4.492-3.79-6.405 2.295-1.117 4.742-1.929 6.948-2.197-1.072 2.824-2.205 5.903-3.158 8.602Zm100.479 23.497c-3.108 2.333-6.772 2.156-5.497-2.241.446-1.335 1.777-2.871 3-3.62 2.01-1.163 3.9-1.317 5.836-1.051.005 1.545-.375 4.691-3.343 6.912h.004Z" style="fill:#1300c1"/></svg>