<svg xmlns="http://www.w3.org/2000/svg" id="Layer_1" data-name="Layer 1" viewBox="0 0 200 100"><defs><style>.cls-1{fill:#193e72}</style></defs><g id="Layer_3" data-name="Layer 3"><path d="M27.55 40.669V52.02l-8.762-11.351h-3.794v18.436h4.064V47.384l9.048 11.721h3.501V40.669H27.55zM34.898 40.669h4.111v18.437h-4.111zM53.992 40.669v7.426h-7.581v-7.426h-4.118v18.436h4.118V52.02h7.581v7.085h4.118V40.669h-4.118zM72.838 51.355c2.504-.465 4.263-2.729 4.095-5.27.132-2.852-2.072-5.271-4.924-5.404-.1-.005-.2-.006-.3-.005H61.394v18.437h4.111V52.02h3.052l4.373 7.086h4.706l-4.798-7.75Zm-2.11-3.268h-5.216v-3.755h5.216c.889 0 2.14.371 2.14 1.878s-1.252 1.847-2.14 1.87" class="cls-1"/><path d="M83.748 40.669h1.63v18.437h-1.63z" style="fill:#ea5d4e"/><path d="M90.718 59.075V46.851h4.227c.692-.015 1.383.06 2.055.224.503.126.977.347 1.399.649.341.271.607.625.773 1.028.175.429.262.889.255 1.352.002.28-.039.559-.124.827-.082.28-.215.542-.394.773-.192.243-.422.454-.68.626-.306.198-.636.357-.981.471 1.684.376 2.527 1.285 2.527 2.728.004.494-.096.984-.294 1.437-.199.439-.495.828-.865 1.136-.409.35-.885.613-1.399.773-.615.192-1.257.283-1.901.27l-4.598-.07Zm2.318-6.955h1.816c.617.044 1.233-.104 1.762-.425.415-.317.642-.823.603-1.344.052-.514-.149-1.022-.541-1.36-.507-.31-1.099-.453-1.692-.41H92.96l.077 3.539Zm0 1.546v3.585h2.318c.359.011.717-.038 1.059-.147.256-.087.49-.226.688-.41.174-.164.304-.368.379-.595.072-.233.109-.475.108-.719.005-.243-.037-.484-.124-.711-.082-.213-.221-.4-.402-.541-.2-.166-.435-.284-.688-.348-.336-.083-.682-.122-1.028-.116h-2.31ZM104.139 47.863c0 .177-.039.351-.116.51-.07.153-.167.291-.286.41-.125.122-.271.219-.433.286-.166.071-.345.108-.525.108-.176 0-.349-.038-.51-.108-.158-.065-.3-.163-.417-.286-.13-.106-.238-.238-.317-.386-.071-.161-.107-.334-.108-.51 0-.356.143-.698.394-.95.12-.119.262-.213.417-.278.161-.071.334-.107.51-.108.181 0 .359.037.525.108.159.067.306.161.433.278.119.124.216.268.286.425.085.155.135.326.147.502Zm-.285 2.526v8.685h-2.094v-8.685h2.094ZM109.896 50.258c.604-.005 1.203.1 1.769.309.507.21.965.523 1.344.92.391.39.694.859.889 1.375.412 1.205.412 2.512 0 3.717-.183.528-.478 1.011-.865 1.414-.378.392-.837.698-1.344.896-1.142.422-2.397.422-3.539 0-.512-.199-.975-.504-1.36-.896-.387-.405-.685-.886-.873-1.414-.412-1.205-.412-2.512 0-3.717.363-1.066 1.181-1.916 2.233-2.318.56-.199 1.152-.296 1.746-.286Zm0 7.341c.633.037 1.241-.255 1.607-.773.389-.64.57-1.385.518-2.133.049-.749-.132-1.496-.518-2.14-.769-.892-2.116-.991-3.008-.222-.079.068-.154.143-.222.222-.701 1.335-.701 2.93 0 4.265.371.522.984.816 1.623.78ZM118.288 54.299v4.775h-2.272V46.85h3.732c.724-.014 1.447.072 2.148.255.532.137 1.03.385 1.46.726.372.292.662.675.842 1.113.183.452.275.935.27 1.422.003.397-.06.791-.185 1.167-.117.362-.295.702-.525 1.005-.24.301-.527.562-.85.773-.351.238-.737.421-1.144.541.307.174.571.414.773.703l3.091 4.52h-2.048c-.175.006-.348-.034-.502-.116-.144-.084-.265-.2-.355-.34l-2.643-3.918c-.079-.129-.187-.238-.317-.317-.164-.068-.341-.097-.518-.085h-.958Zm0-1.638h1.429c.38.007.758-.048 1.12-.162.284-.096.546-.245.773-.44.199-.19.357-.419.464-.672.101-.274.151-.565.147-.858.033-.546-.193-1.076-.61-1.429-.551-.375-1.213-.552-1.878-.502h-1.46l.015 4.064ZM130.504 50.258c.527-.01 1.051.079 1.545.263.446.172.852.435 1.19.773.34.354.603.775.773 1.236.194.535.289 1.1.278 1.669.01.131.01.263 0 .394-.008.087-.034.171-.077.247-.031.059-.084.103-.147.124-.073.03-.153.044-.232.039h-5.409c-.004.721.255 1.418.726 1.963.443.431 1.044.661 1.661.634.296.003.59-.039.873-.124.222-.067.437-.155.641-.263l.487-.263c.122-.073.26-.113.402-.116.076-.003.151.016.216.054.064.033.12.081.162.139l.61.773c-.222.264-.482.493-.773.68-.282.184-.586.331-.904.44-.308.108-.627.186-.95.232-.315.046-.632.069-.95.07-.575.005-1.147-.097-1.684-.301-.51-.195-.971-.498-1.352-.889-.401-.418-.709-.915-.904-1.46-.235-.643-.347-1.324-.332-2.009-.005-.569.092-1.134.286-1.669.172-.517.445-.995.804-1.406.369-.395.816-.708 1.314-.92.555-.222 1.149-.327 1.746-.309Zm.046 1.499c-.53-.031-1.049.156-1.437.518-.372.402-.603.915-.657 1.46h3.933c.002-.262-.037-.523-.116-.773-.068-.231-.181-.446-.332-.634-.161-.181-.358-.326-.58-.425-.258-.104-.534-.154-.811-.147ZM141.128 52.089c-.049.069-.112.127-.185.17-.073.04-.156.058-.24.054-.114 0-.225-.03-.325-.085l-.402-.185c-.17-.079-.345-.143-.525-.193-.224-.059-.456-.088-.688-.085-.344-.02-.686.072-.974.263-.233.149-.369.411-.355.688-.003.174.061.342.178.471.144.136.308.248.487.332.22.101.448.186.68.255l.773.255c.263.089.521.192.773.309.247.112.477.26.68.44.202.178.367.393.487.634.124.282.185.588.178.896.003.397-.074.791-.224 1.159-.154.35-.384.661-.672.912-.32.27-.691.475-1.09.603-.48.149-.981.222-1.484.216-.58-.005-1.155-.11-1.7-.309-.252-.09-.496-.204-.726-.34-.213-.114-.41-.254-.587-.417l.479-.773c.056-.091.133-.168.224-.224.098-.05.207-.074.317-.07.132-.002.261.035.371.108l.402.232c.173.096.354.176.541.24.465.128.957.128 1.422 0 .159-.052.308-.13.44-.232.111-.091.198-.208.255-.34.052-.122.079-.254.077-.386.008-.185-.059-.366-.185-.502-.135-.145-.298-.261-.479-.34-.222-.104-.452-.189-.688-.255l-.773-.255c-.264-.088-.523-.194-.773-.317-.252-.114-.484-.268-.688-.456-.45-.436-.691-1.043-.665-1.669.002-.351.075-.698.216-1.02.145-.321.355-.608.618-.842.304-.252.653-.446 1.028-.572.458-.153.939-.227 1.422-.216.557-.006 1.11.094 1.63.294.456.175.873.438 1.229.773l-.479.78ZM147.078 50.258c.604-.007 1.204.098 1.769.309.515.208.981.521 1.368.92.381.405.675.884.865 1.406.402 1.206.402 2.51 0 3.717-.188.526-.483 1.007-.865 1.414-.381.393-.842.698-1.352.896-.564.217-1.165.325-1.769.317-.604.007-1.205-.101-1.769-.317-.512-.199-.975-.504-1.36-.896-.385-.405-.68-.887-.865-1.414-.412-1.205-.412-2.512 0-3.717.183-.523.472-1.001.85-1.406.39-.384.852-.686 1.36-.889.564-.22 1.164-.335 1.769-.34Zm0 7.341c.633.037 1.241-.255 1.607-.773.392-.639.576-1.384.525-2.133.047-.75-.137-1.497-.525-2.14-.769-.892-2.116-.991-3.008-.222-.079.068-.154.143-.222.222-.701 1.335-.701 2.93 0 4.265.371.522.984.816 1.623.78ZM154.913 50.389v5.525c-.027.441.105.876.371 1.229.283.306.69.465 1.105.433.354.003.704-.079 1.02-.24.332-.173.634-.397.896-.665v-6.282h2.094v8.685h-1.283c-.246.019-.47-.14-.533-.379l-.147-.695c-.172.179-.358.345-.556.495-.189.15-.394.28-.61.386-.485.223-1.012.336-1.545.332-.432.006-.86-.076-1.259-.24-.355-.156-.669-.392-.92-.688-.255-.307-.447-.661-.564-1.043-.127-.431-.19-.879-.185-1.329v-5.525h2.117ZM162.633 59.075V50.39h1.229c.159-.014.319.03.448.124.098.112.158.253.17.402l.131 1.051c.265-.484.625-.91 1.059-1.252.405-.304.899-.467 1.406-.464.378-.018.751.085 1.066.294l-.27 1.545c-.008.083-.047.16-.108.216-.069.043-.15.065-.232.062-.118-.007-.235-.028-.348-.062-.19-.042-.385-.06-.58-.054-.403-.013-.798.113-1.12.355-.336.286-.6.645-.773 1.051v5.409l-2.079.008ZM175.66 52.259c-.053.067-.113.129-.178.185-.078.051-.17.076-.263.07-.111 0-.219-.035-.309-.1l-.371-.216c-.158-.092-.327-.164-.502-.216-.235-.075-.48-.109-.726-.1-.333-.009-.664.06-.966.201-.273.13-.51.327-.688.572-.193.27-.332.574-.41.896-.097.392-.144.794-.139 1.198-.004.417.048.833.155 1.236.08.329.224.639.425.912.176.24.41.432.68.556.28.133.587.2.896.193.263.002.524-.04.773-.124.182-.071.355-.162.518-.27l.371-.27c.097-.083.221-.127.348-.124.154-.011.302.063.386.193l.595.773c-.226.26-.486.489-.773.68-.262.18-.545.328-.842.44-.293.108-.596.186-.904.232-.307.046-.617.069-.927.07-.53.007-1.056-.096-1.545-.301-.472-.199-.894-.5-1.236-.881-.371-.408-.658-.886-.842-1.406-.216-.61-.321-1.254-.309-1.901-.006-.601.088-1.199.278-1.769.158-.519.421-1 .773-1.414.364-.407.816-.727 1.321-.935.576-.234 1.194-.35 1.816-.34.584-.01 1.164.095 1.708.309.492.215.937.522 1.314.904l-.425.75ZM181.224 50.258c.527-.01 1.051.079 1.545.263.446.172.852.435 1.19.773.34.354.603.775.773 1.236.186.534.272 1.097.255 1.661.01.131.01.263 0 .394-.008.087-.034.171-.077.247-.031.059-.084.103-.147.124-.073.03-.153.044-.232.039h-5.37c-.006.72.25 1.417.719 1.963.443.431 1.044.661 1.661.634.296.003.59-.039.873-.124.222-.065.437-.153.641-.263l.487-.263c.122-.073.26-.113.402-.116.076-.003.151.016.216.054.064.033.12.081.162.139l.61.773c-.222.264-.482.493-.773.68-.28.182-.581.33-.896.44-.311.107-.632.185-.958.232-.315.046-.632.069-.95.07-.575.005-1.147-.097-1.684-.301-.51-.195-.971-.498-1.352-.889-.401-.418-.709-.915-.904-1.46-.235-.643-.347-1.324-.332-2.009-.005-.569.092-1.134.286-1.669.171-.514.441-.989.796-1.399.369-.395.816-.708 1.314-.92.555-.222 1.149-.327 1.746-.309Zm.046 1.499c-.528-.033-1.045.155-1.429.518-.377.4-.611.913-.665 1.46h3.933c.002-.262-.037-.523-.116-.773-.068-.231-.181-.446-.332-.634-.161-.181-.358-.326-.58-.425-.258-.104-.534-.154-.811-.147Z" class="cls-1"/></g></svg>