<?xml version="1.0" encoding="UTF-8"?>
<svg version="1.1" viewBox="0 0 430.6 10" xmlns="http://www.w3.org/2000/svg">
<defs>
<style>.st0 {
        fill: #99a6af;
      }</style>
</defs>
<rect class="st0" width="200" height="10" rx="5" ry="5"/>
<circle class="st0" cx="200" cy="5" r="5"/>
<circle class="st0" cx="208" cy="5" r="5"/>
<path class="st0" d="m223.9 5c0 2.6 2.2 4.8 4.8 4.8s4.8-2.1 4.8-4.8-2.2-4.8-4.8-4.8-4.8 2.1-4.8 4.8z"/>
<path class="st0" d="M386.7,5c0,.7.6,1.4,1.4,1.4s1.4-.6,1.4-1.4-.6-1.4-1.4-1.4-1.4.6-1.4,1.4Z"/>
<path class="st0" d="m245.6 5c0 2.4 2 4.3 4.4 4.3s4.4-1.9 4.4-4.3-2-4.3-4.4-4.3-4.4 1.9-4.4 4.3z"/>
<ellipse class="st0" cx="260.6" cy="5" rx="4.1" ry="4.1"/>
<ellipse class="st0" cx="271.2" cy="5" rx="3.9" ry="3.9"/>
<ellipse class="st0" cx="239.3" cy="5" rx="4.6" ry="4.5"/>
<ellipse class="st0" cx="218.1" cy="5" rx="5.1" ry="5"/>
<ellipse class="st0" cx="398.7" cy="5" rx="1.1" ry="1.1"/>
<path class="st0" d="m278.1 5c0 2 1.6 3.6 3.7 3.6s3.7-1.6 3.7-3.6-1.6-3.6-3.7-3.6-3.7 1.6-3.7 3.6z"/>
<path class="st0" d="m343.3 5c0 1.3 1 2.3 2.3 2.3s2.3-1 2.3-2.3-1-2.3-2.3-2.3-2.3 1-2.3 2.3z"/>
<path class="st0" d="M354.1,5c0,1.1.9,2,2.1,2s2.1-.9,2.1-2-.9-2-2.1-2-2.1.9-2.1,2Z"/>
<path class="st0" d="M365,5c0,1,.8,1.8,1.8,1.8s1.8-.8,1.8-1.8-.8-1.8-1.8-1.8-1.8.8-1.8,1.8Z"/>
<path class="st0" d="m289 5c0 1.9 1.5 3.4 3.5 3.4s3.5-1.5 3.5-3.4-1.5-3.4-3.5-3.4-3.5 1.5-3.5 3.4z"/>
<path class="st0" d="M375.8,5c0,.9.7,1.6,1.6,1.6s1.6-.7,1.6-1.6-.7-1.6-1.6-1.6-1.6.7-1.6,1.6Z"/>
<path class="st0" d="m332.4 5c0 1.4 1.1 2.5 2.5 2.5s2.5-1.1 2.5-2.5-1.1-2.5-2.5-2.5-2.5 1.1-2.5 2.5z"/>
<path class="st0" d="m299.8 5c0 1.8 1.4 3.2 3.2 3.2s3.2-1.4 3.2-3.2-1.4-3.2-3.2-3.2-3.2 1.4-3.2 3.2z"/>
<path class="st0" d="m310.7 5c0 1.6 1.3 2.9 3 2.9s3-1.3 3-2.9-1.3-2.9-3-2.9-3 1.3-3 2.9z"/>
<path class="st0" d="m321.6 5c0 1.5 1.2 2.7 2.8 2.7s2.8-1.2 2.8-2.7-1.2-2.7-2.8-2.7-2.8 1.2-2.8 2.7z"/>
<circle class="st0" cx="419.9" cy="5" r=".5"/>
<circle class="st0" cx="409.3" cy="5" r=".7"/>
<circle class="st0" cx="430.3" cy="5" r=".2"/>
</svg>
