<svg class="footer-icon" xmlns="http://www.w3.org/2000/svg" viewBox="0 0 115 115" aria-hidden="true" focusable="false">
  <path d="M 57.86 9.206 C 30.845 9.206 9.006 31.206 9.006 58.423 C 9.006 80.179 22.999 98.595 42.411 105.113 C 44.838 105.603 45.727 104.054 45.727 102.751 C 45.727 101.61 45.647 97.699 45.647 93.624 C 32.057 96.558 29.227 87.757 29.227 87.757 C 27.043 82.053 23.807 80.587 23.807 80.587 C 19.359 77.572 24.131 77.572 24.131 77.572 C 29.065 77.898 31.654 82.624 31.654 82.624 C 36.021 90.12 43.058 88.002 45.889 86.698 C 46.293 83.52 47.588 81.32 48.963 80.098 C 38.124 78.957 26.72 74.72 26.72 55.815 C 26.72 50.437 28.66 46.037 31.734 42.615 C 31.249 41.393 29.55 36.34 32.22 29.577 C 32.22 29.577 36.345 28.273 45.646 34.629 C 49.628 33.552 53.735 33.004 57.86 32.999 C 61.985 32.999 66.19 33.57 70.073 34.629 C 79.375 28.273 83.5 29.577 83.5 29.577 C 86.17 36.34 84.47 41.393 83.985 42.615 C 87.14 46.037 89 50.437 89 55.815 C 89 74.72 77.596 78.875 66.676 80.098 C 68.456 81.646 69.992 84.579 69.992 89.224 C 69.992 95.824 69.912 101.121 69.912 102.75 C 69.912 104.054 70.802 105.603 73.228 105.114 C 92.64 98.594 106.633 80.179 106.633 58.423 C 106.713 31.206 84.794 9.206 57.86 9.206 Z"/>
</svg>
