<svg class="footer-icon" xmlns="http://www.w3.org/2000/svg" viewBox="0 0 32 32" aria-hidden="true" focusable="false">
  <path d="M 28.571 7.431 L 24.445 7.431 C 23.783 3.339 20.366 0.128 16.263 0.002 C 13.931 -0.055 11.714 0.791 10.034 2.425 C 8.628 3.785 7.76 5.534 7.508 7.431 L 3.429 7.431 C 1.543 7.431 0 8.974 0 10.86 L 0 28.574 C 0 30.46 1.543 32.003 3.429 32.003 L 28.571 32.003 C 30.457 32.003 32 30.46 32 28.574 L 32 10.86 C 32 8.974 30.457 7.431 28.571 7.431 L 28.571 7.431 Z M 29.714 15.271 L 16.445 20.814 C 16.16 20.939 15.84 20.939 15.554 20.814 L 2.286 15.271 L 2.286 10.86 C 2.286 10.231 2.8 9.717 3.429 9.717 L 7.508 9.717 C 8.08 13.9 11.657 17.145 16 17.145 C 16.628 17.145 17.143 16.631 17.143 16.002 C 17.143 15.374 16.628 14.859 16 14.859 C 12.537 14.859 9.714 12.036 9.714 8.574 C 9.714 6.859 10.388 5.259 11.622 4.059 C 12.857 2.871 14.468 2.242 16.194 2.288 C 19.554 2.39 22.285 5.351 22.285 8.882 L 22.285 9.511 C 22.285 10.082 21.828 10.539 21.268 10.539 C 20.708 10.539 20.251 10.082 20.251 9.511 L 20.251 8.574 C 20.251 6.23 18.342 4.322 16 4.322 C 13.657 4.322 11.748 6.23 11.748 8.574 C 11.748 10.916 13.657 12.825 16 12.825 C 17.085 12.825 18.068 12.402 18.823 11.716 C 19.428 12.391 20.297 12.825 21.268 12.825 C 23.017 12.825 24.445 11.442 24.548 9.716 L 28.571 9.716 C 29.2 9.716 29.714 10.231 29.714 10.859 L 29.714 15.271 Z M 17.965 8.574 C 17.965 9.66 17.085 10.54 16 10.54 C 14.914 10.54 14.034 9.66 14.034 8.574 C 14.034 7.488 14.914 6.608 16 6.608 C 17.085 6.608 17.965 7.488 17.965 8.574 Z"/>
</svg>