<svg class="footer-icon" xmlns="http://www.w3.org/2000/svg" viewBox="0 0 72 72" aria-hidden="true" focusable="false">
  <path d="M 0 64 L 0 8 C 0 3.582 3.582 0 8 0 L 64 0 C 68.418 0 72 3.582 72 8 L 72 64 C 72 68.418 68.418 72 64 72 L 8 72 C 3.582 72 0 68.418 0 64 Z M 62 40.051 C 62 30.764 56.736 26.274 49.383 26.274 C 42.026 26.274 38.93 32.003 38.93 32.003 L 38.93 27.333 L 28.633 27.333 L 28.633 62 L 38.93 62 L 38.93 43.802 C 38.93 38.926 41.175 36.025 45.471 36.025 C 49.42 36.025 51.316 38.813 51.316 43.802 L 51.316 62 L 62 62 Z M 22.697 16.397 C 22.697 12.864 19.857 10 16.349 10 C 12.842 10 10 12.864 10 16.397 C 10 19.93 12.842 22.794 16.349 22.794 C 19.857 22.794 22.697 19.93 22.697 16.397 Z M 11.033 62 L 21.769 62 L 21.769 27.333 L 11.033 27.333 Z"/>
</svg>